<mxfile host="app.diagrams.net" modified="2023-03-21T12:41:43.240Z" agent="5.0 (Windows NT 10.0; Win64; x64) AppleWebKit/537.36 (KHTML, like Gecko) Chrome/112.0.0.0 Safari/537.36" etag="j0hAvbvpsEkJj79Ty9lb" version="21.0.8" type="github">
  <diagram name="Page-1" id="7a6c530e-6e37-e111-ec74-82921da8cc10">
    <mxGraphModel dx="1281" dy="698" grid="1" gridSize="10" guides="1" tooltips="1" connect="1" arrows="1" fold="1" page="1" pageScale="1.5" pageWidth="1169" pageHeight="826" background="#184380" math="0" shadow="0">
      <root>
        <mxCell id="0" style=";html=1;" />
        <mxCell id="1" style=";html=1;" parent="0" />
        <mxCell id="23046e2b9bb16c14-116" value="风暴潮值系统架构图" style="whiteSpace=wrap;html=1;rounded=1;shadow=0;strokeColor=none;strokeWidth=2;fillColor=#93cdf1;fontSize=20;fontColor=#FFFFFF;align=center;arcSize=3;verticalAlign=top;spacingTop=4;" parent="1" vertex="1">
          <mxGeometry x="287" y="217" width="1180" height="550" as="geometry" />
        </mxCell>
        <mxCell id="23046e2b9bb16c14-64" value="数据处理" style="rounded=1;whiteSpace=wrap;html=1;shadow=0;strokeWidth=2;fillColor=#0072BC;fontSize=12;fontColor=#FFFFFF;align=center;strokeColor=none;arcSize=3;verticalAlign=top;" parent="1" vertex="1">
          <mxGeometry x="1252" y="283" width="154" height="426" as="geometry" />
        </mxCell>
        <mxCell id="23046e2b9bb16c14-27" value="" style="rounded=1;whiteSpace=wrap;html=1;shadow=0;strokeWidth=2;fillColor=#8BC63E;fontSize=12;fontColor=#000000;align=center;strokeColor=none;arcSize=3;" parent="1" vertex="1">
          <mxGeometry x="676" y="282" width="530" height="420" as="geometry" />
        </mxCell>
        <mxCell id="23046e2b9bb16c14-2" value="" style="rounded=1;whiteSpace=wrap;html=1;shadow=0;strokeWidth=2;fillColor=none;fontSize=12;fontColor=#000000;align=center;strokeColor=#FFFFFF;arcSize=10;" parent="1" vertex="1">
          <mxGeometry x="876" y="420" width="160" height="241" as="geometry" />
        </mxCell>
        <mxCell id="23046e2b9bb16c14-54" value="Availability set" style="rounded=1;whiteSpace=wrap;html=1;shadow=0;strokeWidth=2;fillColor=none;fontSize=11;fontColor=#FFFFFF;align=center;strokeColor=#FFFFFF;dashed=1;verticalAlign=top;" parent="1" vertex="1">
          <mxGeometry x="956" y="441" width="70" height="211" as="geometry" />
        </mxCell>
        <mxCell id="23046e2b9bb16c14-28" value="客户端" style="rounded=1;whiteSpace=wrap;html=1;shadow=0;strokeWidth=2;fillColor=#F04D22;fontSize=12;fontColor=#FFFFFF;align=center;strokeColor=none;arcSize=6;verticalAlign=top;" parent="1" vertex="1">
          <mxGeometry x="410" y="331" width="230" height="330" as="geometry" />
        </mxCell>
        <mxCell id="23046e2b9bb16c14-49" value="" style="rounded=1;whiteSpace=wrap;html=1;shadow=0;strokeWidth=2;fillColor=none;fontSize=12;fontColor=#000000;align=center;strokeColor=#FFFFFF;" parent="1" vertex="1">
          <mxGeometry x="436" y="377" width="190" height="250" as="geometry" />
        </mxCell>
        <mxCell id="23046e2b9bb16c14-1" value="" style="rounded=1;whiteSpace=wrap;html=1;shadow=0;strokeWidth=2;fillColor=none;fontSize=12;fontColor=#000000;align=center;strokeColor=#FFFFFF;" parent="1" vertex="1">
          <mxGeometry x="746" y="420" width="110" height="221" as="geometry" />
        </mxCell>
        <mxCell id="23046e2b9bb16c14-73" style="html=1;startArrow=none;startFill=0;startSize=10;endArrow=none;endFill=0;endSize=10;strokeWidth=3;fontSize=11;fontColor=#FFFFFF;strokeColor=#FFFFFF;rounded=0;" parent="1" source="24964f25f45c63f1-5" target="23046e2b9bb16c14-7" edge="1">
          <mxGeometry relative="1" as="geometry" />
        </mxCell>
        <mxCell id="24964f25f45c63f1-5" value="Gateway" style="shadow=0;dashed=0;html=1;strokeColor=none;shape=mxgraph.mscae.enterprise.gateway;fillColor=#FFFFFF;rounded=0;fontSize=12;fontColor=#FFFFFF;align=center;labelPosition=center;verticalLabelPosition=top;verticalAlign=bottom;" parent="1" vertex="1">
          <mxGeometry x="773" y="541" width="50" height="50" as="geometry" />
        </mxCell>
        <mxCell id="24964f25f45c63f1-6" value="" style="shadow=0;dashed=0;html=1;strokeColor=none;shape=mxgraph.mscae.enterprise.lock;fillColor=#FFFFFF;rounded=0;fontSize=12;fontColor=#000000;align=center;" parent="1" vertex="1">
          <mxGeometry x="896" y="436" width="39" height="50" as="geometry" />
        </mxCell>
        <mxCell id="23046e2b9bb16c14-7" value="" style="shadow=0;dashed=0;html=1;strokeColor=none;labelPosition=center;verticalLabelPosition=bottom;verticalAlign=top;shape=mxgraph.mscae.cloud.azure_load_balancer_feature;fillColor=#FFFFFF;rounded=1;fontSize=12;fontColor=#000000;align=center;" parent="1" vertex="1">
          <mxGeometry x="891" y="541" width="50" height="50" as="geometry" />
        </mxCell>
        <mxCell id="23046e2b9bb16c14-75" style="html=1;startArrow=none;startFill=0;startSize=10;endArrow=none;endFill=0;endSize=10;strokeWidth=3;fontSize=11;fontColor=#FFFFFF;entryX=0.793;entryY=0.26;entryPerimeter=0;strokeColor=#FFFFFF;rounded=0;" parent="1" source="23046e2b9bb16c14-29" target="23046e2b9bb16c14-7" edge="1">
          <mxGeometry relative="1" as="geometry" />
        </mxCell>
        <mxCell id="23046e2b9bb16c14-29" value="" style="verticalLabelPosition=bottom;html=1;verticalAlign=top;strokeColor=none;fillColor=#FFFFFF;shape=mxgraph.azure.virtual_machine;rounded=1;shadow=0;fontSize=12;fontColor=#000000;align=center;" parent="1" vertex="1">
          <mxGeometry x="966" y="493" width="50" height="40" as="geometry" />
        </mxCell>
        <mxCell id="23046e2b9bb16c14-76" style="html=1;entryX=1.016;entryY=0.509;entryPerimeter=0;startArrow=none;startFill=0;startSize=10;endArrow=none;endFill=0;endSize=10;strokeWidth=3;fontSize=11;fontColor=#FFFFFF;strokeColor=#FFFFFF;rounded=0;" parent="1" source="23046e2b9bb16c14-30" target="23046e2b9bb16c14-7" edge="1">
          <mxGeometry relative="1" as="geometry" />
        </mxCell>
        <mxCell id="23046e2b9bb16c14-30" value="" style="verticalLabelPosition=bottom;html=1;verticalAlign=top;strokeColor=none;fillColor=#FFFFFF;shape=mxgraph.azure.virtual_machine;rounded=1;shadow=0;fontSize=12;fontColor=#000000;align=center;" parent="1" vertex="1">
          <mxGeometry x="966" y="546" width="50" height="40" as="geometry" />
        </mxCell>
        <mxCell id="23046e2b9bb16c14-77" style="html=1;entryX=0.802;entryY=0.762;entryPerimeter=0;startArrow=none;startFill=0;startSize=10;endArrow=none;endFill=0;endSize=10;strokeWidth=3;fontSize=11;fontColor=#FFFFFF;strokeColor=#FFFFFF;rounded=0;" parent="1" source="23046e2b9bb16c14-31" target="23046e2b9bb16c14-7" edge="1">
          <mxGeometry relative="1" as="geometry" />
        </mxCell>
        <mxCell id="23046e2b9bb16c14-31" value="" style="verticalLabelPosition=bottom;html=1;verticalAlign=top;strokeColor=none;fillColor=#FFFFFF;shape=mxgraph.azure.virtual_machine;rounded=1;shadow=0;fontSize=12;fontColor=#000000;align=center;" parent="1" vertex="1">
          <mxGeometry x="966" y="598" width="50" height="40" as="geometry" />
        </mxCell>
        <mxCell id="0fIpZP7jr5zXnAWBWlGi-1" value="" style="edgeStyle=orthogonalEdgeStyle;rounded=0;orthogonalLoop=1;jettySize=auto;html=1;" edge="1" parent="1" source="23046e2b9bb16c14-48" target="23046e2b9bb16c14-1">
          <mxGeometry relative="1" as="geometry" />
        </mxCell>
        <mxCell id="23046e2b9bb16c14-48" value="服务端" style="shadow=0;dashed=0;html=1;strokeColor=none;fillColor=#FFFFFF;labelPosition=center;verticalLabelPosition=bottom;verticalAlign=top;shape=mxgraph.office.clouds.azure;rounded=1;fontSize=12;fontColor=#FFFFFF;align=center;" parent="1" vertex="1">
          <mxGeometry x="691" y="300" width="83" height="53" as="geometry" />
        </mxCell>
        <mxCell id="23046e2b9bb16c14-71" style="edgeStyle=orthogonalEdgeStyle;html=1;startArrow=none;startFill=0;startSize=10;endArrow=none;endFill=0;endSize=10;strokeWidth=3;fontSize=11;fontColor=#FFFFFF;strokeColor=#FFFFFF;dashed=1;rounded=0;" parent="1" source="0fIpZP7jr5zXnAWBWlGi-9" target="24964f25f45c63f1-5" edge="1">
          <mxGeometry relative="1" as="geometry">
            <Array as="points">
              <mxPoint x="798" y="730" />
            </Array>
            <mxPoint x="581" y="698" as="sourcePoint" />
          </mxGeometry>
        </mxCell>
        <mxCell id="23046e2b9bb16c14-55" value="" style="rounded=1;whiteSpace=wrap;html=1;shadow=0;strokeWidth=2;fillColor=none;fontSize=12;fontColor=#000000;align=center;strokeColor=#FFFFFF;arcSize=9;" parent="1" vertex="1">
          <mxGeometry x="1071" y="420" width="160" height="241" as="geometry" />
        </mxCell>
        <mxCell id="23046e2b9bb16c14-56" value="&lt;span&gt;Availability set&lt;/span&gt;" style="rounded=1;whiteSpace=wrap;html=1;shadow=0;strokeWidth=2;fillColor=none;fontSize=11;fontColor=#FFFFFF;align=center;strokeColor=#FFFFFF;dashed=1;verticalAlign=top;" parent="1" vertex="1">
          <mxGeometry x="1151" y="441" width="70" height="211" as="geometry" />
        </mxCell>
        <mxCell id="23046e2b9bb16c14-57" value="" style="shadow=0;dashed=0;html=1;strokeColor=none;shape=mxgraph.mscae.enterprise.lock;fillColor=#FFFFFF;rounded=0;fontSize=12;fontColor=#000000;align=center;" parent="1" vertex="1">
          <mxGeometry x="1091" y="436" width="39" height="50" as="geometry" />
        </mxCell>
        <mxCell id="23046e2b9bb16c14-74" style="html=1;startArrow=none;startFill=0;startSize=10;endArrow=none;endFill=0;endSize=10;strokeWidth=3;fontSize=11;fontColor=#FFFFFF;strokeColor=#FFFFFF;rounded=0;edgeStyle=elbowEdgeStyle;elbow=vertical;" parent="1" source="23046e2b9bb16c14-58" target="23046e2b9bb16c14-2" edge="1">
          <mxGeometry relative="1" as="geometry" />
        </mxCell>
        <mxCell id="23046e2b9bb16c14-78" style="edgeStyle=orthogonalEdgeStyle;html=1;startArrow=none;startFill=0;startSize=10;endArrow=none;endFill=0;endSize=10;strokeWidth=3;fontSize=11;fontColor=#FFFFFF;strokeColor=#FFFFFF;rounded=0;" parent="1" source="23046e2b9bb16c14-58" target="23046e2b9bb16c14-60" edge="1">
          <mxGeometry relative="1" as="geometry" />
        </mxCell>
        <mxCell id="23046e2b9bb16c14-79" style="html=1;startArrow=none;startFill=0;startSize=10;endArrow=none;endFill=0;endSize=10;strokeWidth=3;fontSize=11;fontColor=#FFFFFF;strokeColor=#FFFFFF;rounded=0;exitX=0.796;exitY=0.241;exitPerimeter=0;" parent="1" source="23046e2b9bb16c14-58" target="23046e2b9bb16c14-59" edge="1">
          <mxGeometry relative="1" as="geometry" />
        </mxCell>
        <mxCell id="23046e2b9bb16c14-80" style="html=1;startArrow=none;startFill=0;startSize=10;endArrow=none;endFill=0;endSize=10;strokeWidth=3;fontSize=11;fontColor=#FFFFFF;strokeColor=#FFFFFF;rounded=0;exitX=0.789;exitY=0.767;exitPerimeter=0;" parent="1" source="23046e2b9bb16c14-58" target="23046e2b9bb16c14-61" edge="1">
          <mxGeometry relative="1" as="geometry" />
        </mxCell>
        <mxCell id="23046e2b9bb16c14-58" value="" style="shadow=0;dashed=0;html=1;strokeColor=none;labelPosition=center;verticalLabelPosition=bottom;verticalAlign=top;shape=mxgraph.mscae.cloud.azure_load_balancer_feature;fillColor=#FFFFFF;rounded=1;fontSize=12;fontColor=#000000;align=center;" parent="1" vertex="1">
          <mxGeometry x="1086" y="541" width="50" height="50" as="geometry" />
        </mxCell>
        <mxCell id="23046e2b9bb16c14-59" value="" style="verticalLabelPosition=bottom;html=1;verticalAlign=top;strokeColor=none;fillColor=#FFFFFF;shape=mxgraph.azure.virtual_machine;rounded=1;shadow=0;fontSize=12;fontColor=#000000;align=center;" parent="1" vertex="1">
          <mxGeometry x="1161" y="493" width="50" height="40" as="geometry" />
        </mxCell>
        <mxCell id="23046e2b9bb16c14-60" value="" style="verticalLabelPosition=bottom;html=1;verticalAlign=top;strokeColor=none;fillColor=#FFFFFF;shape=mxgraph.azure.virtual_machine;rounded=1;shadow=0;fontSize=12;fontColor=#000000;align=center;" parent="1" vertex="1">
          <mxGeometry x="1161" y="546" width="50" height="40" as="geometry" />
        </mxCell>
        <mxCell id="23046e2b9bb16c14-61" value="" style="verticalLabelPosition=bottom;html=1;verticalAlign=top;strokeColor=none;fillColor=#FFFFFF;shape=mxgraph.azure.virtual_machine;rounded=1;shadow=0;fontSize=12;fontColor=#000000;align=center;" parent="1" vertex="1">
          <mxGeometry x="1161" y="598" width="50" height="40" as="geometry" />
        </mxCell>
        <mxCell id="23046e2b9bb16c14-81" value="A" style="text;html=1;strokeColor=none;fillColor=none;align=center;verticalAlign=middle;whiteSpace=wrap;rounded=1;shadow=0;fontSize=11;fontColor=#FFFFFF;fontStyle=1" parent="1" vertex="1">
          <mxGeometry x="666" y="678" width="20" height="20" as="geometry" />
        </mxCell>
        <mxCell id="23046e2b9bb16c14-82" value="B" style="text;html=1;strokeColor=none;fillColor=none;align=center;verticalAlign=middle;whiteSpace=wrap;rounded=1;shadow=0;fontSize=11;fontColor=#FFFFFF;fontStyle=1" parent="1" vertex="1">
          <mxGeometry x="1226" y="678" width="20" height="20" as="geometry" />
        </mxCell>
        <mxCell id="23046e2b9bb16c14-83" value="C" style="text;html=1;strokeColor=none;fillColor=none;align=center;verticalAlign=middle;whiteSpace=wrap;rounded=1;shadow=0;fontSize=11;fontColor=#FFFFFF;fontStyle=1" parent="1" vertex="1">
          <mxGeometry x="1406" y="680" width="20" height="20" as="geometry" />
        </mxCell>
        <mxCell id="23046e2b9bb16c14-84" value="" style="rounded=0;whiteSpace=wrap;html=1;shadow=0;strokeWidth=2;fillColor=#F04D22;fontSize=12;fontColor=#FFFFFF;align=center;strokeColor=none;arcSize=6;verticalAlign=top;" parent="1" vertex="1">
          <mxGeometry x="326" y="820" width="300" height="102" as="geometry" />
        </mxCell>
        <mxCell id="23046e2b9bb16c14-85" value="" style="rounded=0;whiteSpace=wrap;html=1;shadow=0;strokeWidth=2;fillColor=#8BC63E;fontSize=12;fontColor=#FFFFFF;align=center;strokeColor=none;arcSize=6;verticalAlign=top;" parent="1" vertex="1">
          <mxGeometry x="626" y="820" width="400" height="102" as="geometry" />
        </mxCell>
        <mxCell id="23046e2b9bb16c14-86" value="" style="rounded=0;whiteSpace=wrap;html=1;shadow=0;strokeWidth=2;fillColor=#0072BC;fontSize=12;fontColor=#FFFFFF;align=center;strokeColor=none;arcSize=3;verticalAlign=top;" parent="1" vertex="1">
          <mxGeometry x="1026" y="820" width="390" height="102" as="geometry" />
        </mxCell>
        <mxCell id="23046e2b9bb16c14-87" value="A" style="text;html=1;strokeColor=none;fillColor=none;align=center;verticalAlign=middle;whiteSpace=wrap;rounded=1;shadow=0;fontSize=30;fontColor=#FFFFFF;fontStyle=1" parent="1" vertex="1">
          <mxGeometry x="326" y="853" width="40" height="35" as="geometry" />
        </mxCell>
        <mxCell id="23046e2b9bb16c14-88" value="B" style="text;html=1;strokeColor=none;fillColor=none;align=center;verticalAlign=middle;whiteSpace=wrap;rounded=1;shadow=0;fontSize=30;fontColor=#FFFFFF;fontStyle=1" parent="1" vertex="1">
          <mxGeometry x="626" y="853" width="40" height="35" as="geometry" />
        </mxCell>
        <mxCell id="23046e2b9bb16c14-89" value="C" style="text;html=1;strokeColor=none;fillColor=none;align=center;verticalAlign=middle;whiteSpace=wrap;rounded=1;shadow=0;fontSize=30;fontColor=#FFFFFF;fontStyle=1" parent="1" vertex="1">
          <mxGeometry x="1026" y="853" width="40" height="35" as="geometry" />
        </mxCell>
        <mxCell id="23046e2b9bb16c14-90" value="Computer" style="verticalLabelPosition=top;html=1;verticalAlign=bottom;strokeColor=none;fillColor=#FFFFFF;shape=mxgraph.azure.computer;rounded=0;shadow=0;fontSize=10;fontColor=#FFFFFF;align=center;labelPosition=center;" parent="1" vertex="1">
          <mxGeometry x="393" y="860" width="50" height="45" as="geometry" />
        </mxCell>
        <mxCell id="23046e2b9bb16c14-91" value="VHD" style="shadow=0;html=1;strokeColor=none;fillColor=#FFFFFF;labelPosition=center;verticalLabelPosition=top;verticalAlign=bottom;shape=mxgraph.azure.vhd;rounded=0;fontSize=10;fontColor=#FFFFFF;align=center;" parent="1" vertex="1">
          <mxGeometry x="483" y="857" width="40" height="50" as="geometry" />
        </mxCell>
        <mxCell id="23046e2b9bb16c14-92" value="+" style="text;html=1;strokeColor=none;fillColor=none;align=center;verticalAlign=middle;whiteSpace=wrap;rounded=1;shadow=0;fontSize=30;fontColor=#FFFFFF;fontStyle=1" parent="1" vertex="1">
          <mxGeometry x="443" y="865" width="40" height="35" as="geometry" />
        </mxCell>
        <mxCell id="23046e2b9bb16c14-93" value="+" style="text;html=1;strokeColor=none;fillColor=none;align=center;verticalAlign=middle;whiteSpace=wrap;rounded=1;shadow=0;fontSize=30;fontColor=#FFFFFF;fontStyle=1" parent="1" vertex="1">
          <mxGeometry x="523" y="865" width="40" height="35" as="geometry" />
        </mxCell>
        <mxCell id="23046e2b9bb16c14-94" value="Server&lt;div&gt;Directory&lt;/div&gt;" style="shadow=0;html=1;strokeColor=none;shape=mxgraph.mscae.enterprise.server_directory;fillColor=#FFFFFF;rounded=0;fontSize=10;fontColor=#FFFFFF;align=center;verticalAlign=bottom;labelPosition=center;verticalLabelPosition=top;" parent="1" vertex="1">
          <mxGeometry x="563" y="858" width="36" height="50" as="geometry" />
        </mxCell>
        <mxCell id="23046e2b9bb16c14-95" value="VM Feature" style="shadow=0;html=1;strokeColor=none;fillColor=#FFFFFF;labelPosition=center;verticalLabelPosition=top;verticalAlign=bottom;shape=mxgraph.azure.virtual_machine_feature;rounded=0;fontSize=10;fontColor=#FFFFFF;align=center;" parent="1" vertex="1">
          <mxGeometry x="684" y="861" width="50" height="45" as="geometry" />
        </mxCell>
        <mxCell id="23046e2b9bb16c14-96" value="+" style="text;html=1;strokeColor=none;fillColor=none;align=center;verticalAlign=middle;whiteSpace=wrap;rounded=1;shadow=0;fontSize=30;fontColor=#FFFFFF;fontStyle=1" parent="1" vertex="1">
          <mxGeometry x="734" y="866" width="40" height="35" as="geometry" />
        </mxCell>
        <mxCell id="23046e2b9bb16c14-97" value="VHD" style="shadow=0;html=1;strokeColor=none;fillColor=#FFFFFF;labelPosition=center;verticalLabelPosition=top;verticalAlign=bottom;shape=mxgraph.azure.vhd;rounded=0;fontSize=10;fontColor=#FFFFFF;align=center;" parent="1" vertex="1">
          <mxGeometry x="774" y="858" width="40" height="50" as="geometry" />
        </mxCell>
        <mxCell id="23046e2b9bb16c14-98" value="3rd Party&lt;div&gt;Integration&lt;/div&gt;" style="shadow=0;html=1;strokeColor=none;fillColor=#FFFFFF;labelPosition=center;verticalLabelPosition=top;verticalAlign=bottom;shape=mxgraph.office.communications.3rd_party_integration;rounded=0;fontSize=10;fontColor=#FFFFFF;align=center;" parent="1" vertex="1">
          <mxGeometry x="854" y="856" width="54" height="55" as="geometry" />
        </mxCell>
        <mxCell id="23046e2b9bb16c14-99" value="+" style="text;html=1;strokeColor=none;fillColor=none;align=center;verticalAlign=middle;whiteSpace=wrap;rounded=1;shadow=0;fontSize=30;fontColor=#FFFFFF;fontStyle=1" parent="1" vertex="1">
          <mxGeometry x="814" y="866" width="40" height="35" as="geometry" />
        </mxCell>
        <mxCell id="23046e2b9bb16c14-100" value="+" style="text;html=1;strokeColor=none;fillColor=none;align=center;verticalAlign=middle;whiteSpace=wrap;rounded=1;shadow=0;fontSize=30;fontColor=#FFFFFF;fontStyle=1" parent="1" vertex="1">
          <mxGeometry x="908" y="866" width="40" height="35" as="geometry" />
        </mxCell>
        <mxCell id="23046e2b9bb16c14-101" value="Data Migration&lt;div&gt;Wizard&lt;/div&gt;" style="shadow=0;html=1;strokeColor=none;shape=mxgraph.mscae.intune.data_migration_wizard;fillColor=#FFFFFF;rounded=0;fontSize=10;fontColor=#FFFFFF;align=center;verticalAlign=bottom;labelPosition=center;verticalLabelPosition=top;" parent="1" vertex="1">
          <mxGeometry x="948" y="859" width="50" height="48" as="geometry" />
        </mxCell>
        <mxCell id="23046e2b9bb16c14-102" value="VM Feature" style="shadow=0;html=1;strokeColor=none;fillColor=#FFFFFF;labelPosition=center;verticalLabelPosition=top;verticalAlign=bottom;shape=mxgraph.azure.virtual_machine_feature;rounded=0;fontSize=10;fontColor=#FFFFFF;align=center;" parent="1" vertex="1">
          <mxGeometry x="1086" y="861" width="50" height="45" as="geometry" />
        </mxCell>
        <mxCell id="23046e2b9bb16c14-103" value="" style="line;strokeWidth=2;direction=south;html=1;rounded=0;shadow=0;fillColor=none;fontSize=30;fontColor=#FFFFFF;align=center;strokeColor=#FFFFFF;" parent="1" vertex="1">
          <mxGeometry x="366" y="820" width="10" height="102" as="geometry" />
        </mxCell>
        <mxCell id="23046e2b9bb16c14-104" value="" style="line;strokeWidth=2;direction=south;html=1;rounded=0;shadow=0;fillColor=none;fontSize=30;fontColor=#FFFFFF;align=center;strokeColor=#FFFFFF;" parent="1" vertex="1">
          <mxGeometry x="666" y="820" width="10" height="102" as="geometry" />
        </mxCell>
        <mxCell id="23046e2b9bb16c14-105" value="" style="line;strokeWidth=2;direction=south;html=1;rounded=0;shadow=0;fillColor=none;fontSize=30;fontColor=#FFFFFF;align=center;strokeColor=#FFFFFF;" parent="1" vertex="1">
          <mxGeometry x="1066" y="820" width="10" height="102" as="geometry" />
        </mxCell>
        <mxCell id="23046e2b9bb16c14-106" value="+" style="text;html=1;strokeColor=none;fillColor=none;align=center;verticalAlign=middle;whiteSpace=wrap;rounded=1;shadow=0;fontSize=30;fontColor=#FFFFFF;fontStyle=1" parent="1" vertex="1">
          <mxGeometry x="1136" y="866" width="40" height="35" as="geometry" />
        </mxCell>
        <mxCell id="23046e2b9bb16c14-107" value="Azure&lt;div&gt;Website&lt;/div&gt;" style="verticalLabelPosition=top;html=1;verticalAlign=bottom;strokeColor=none;fillColor=#FFFFFF;shape=mxgraph.azure.azure_website;rounded=0;shadow=0;fontSize=10;fontColor=#FFFFFF;align=center;labelPosition=center;" parent="1" vertex="1">
          <mxGeometry x="1176" y="858" width="50" height="50" as="geometry" />
        </mxCell>
        <mxCell id="23046e2b9bb16c14-108" value="+" style="text;html=1;strokeColor=none;fillColor=none;align=center;verticalAlign=middle;whiteSpace=wrap;rounded=1;shadow=0;fontSize=30;fontColor=#FFFFFF;fontStyle=1" parent="1" vertex="1">
          <mxGeometry x="1226" y="866" width="40" height="35" as="geometry" />
        </mxCell>
        <mxCell id="23046e2b9bb16c14-109" value="MySQL&lt;div&gt;Database&lt;/div&gt;" style="verticalLabelPosition=top;html=1;verticalAlign=bottom;strokeColor=none;fillColor=#FFFFFF;shape=mxgraph.azure.mysql_database;rounded=0;shadow=0;fontSize=10;fontColor=#FFFFFF;align=center;labelPosition=center;" parent="1" vertex="1">
          <mxGeometry x="1266" y="859" width="37.5" height="50" as="geometry" />
        </mxCell>
        <mxCell id="23046e2b9bb16c14-110" value="+" style="text;html=1;strokeColor=none;fillColor=none;align=center;verticalAlign=middle;whiteSpace=wrap;rounded=1;shadow=0;fontSize=30;fontColor=#FFFFFF;fontStyle=1" parent="1" vertex="1">
          <mxGeometry x="1304" y="866" width="40" height="35" as="geometry" />
        </mxCell>
        <mxCell id="23046e2b9bb16c14-111" value="Azure&lt;div&gt;Storage&lt;/div&gt;" style="shadow=0;html=1;strokeColor=none;labelPosition=center;verticalLabelPosition=top;verticalAlign=bottom;shape=mxgraph.mscae.cloud.azure_storage;fillColor=#FFFFFF;rounded=0;fontSize=10;fontColor=#FFFFFF;align=center;" parent="1" vertex="1">
          <mxGeometry x="1344" y="862" width="50" height="43" as="geometry" />
        </mxCell>
        <mxCell id="23046e2b9bb16c14-113" value="Title" style="text;strokeColor=none;fillColor=none;html=1;fontSize=24;fontStyle=1;verticalAlign=middle;align=center;rounded=0;shadow=0;fontColor=#FFFFFF;" parent="1" vertex="1">
          <mxGeometry x="120" y="40" width="1510" height="40" as="geometry" />
        </mxCell>
        <mxCell id="23046e2b9bb16c14-114" value="Subtitle" style="text;html=1;strokeColor=none;fillColor=none;align=center;verticalAlign=middle;whiteSpace=wrap;rounded=0;shadow=0;fontSize=10;fontColor=#009BFF;" parent="1" vertex="1">
          <mxGeometry x="114" y="90" width="1526" height="20" as="geometry" />
        </mxCell>
        <mxCell id="23046e2b9bb16c14-115" value="&lt;h1&gt;&lt;br&gt;&lt;/h1&gt;" style="text;html=1;strokeColor=none;fillColor=none;spacing=5;spacingTop=-20;whiteSpace=wrap;overflow=hidden;rounded=0;shadow=0;fontSize=10;fontColor=#FFFFFF;align=left;" parent="1" vertex="1">
          <mxGeometry x="323" y="952" width="1041" height="70" as="geometry" />
        </mxCell>
        <mxCell id="0fIpZP7jr5zXnAWBWlGi-7" style="edgeStyle=orthogonalEdgeStyle;rounded=0;orthogonalLoop=1;jettySize=auto;html=1;" edge="1" parent="1" source="23046e2b9bb16c14-49" target="23046e2b9bb16c14-49">
          <mxGeometry relative="1" as="geometry" />
        </mxCell>
        <mxCell id="0fIpZP7jr5zXnAWBWlGi-6" value="" style="shape=image;verticalLabelPosition=bottom;labelBackgroundColor=#ffffff;verticalAlign=top;aspect=fixed;imageAspect=0;image=data:image/svg+xml,PHN2ZyB4bWxuczpjYz0iaHR0cDovL2NyZWF0aXZlY29tbW9ucy5vcmcvbnMjIiB4bWxuczpkYz0iaHR0cDovL3B1cmwub3JnL2RjL2VsZW1lbnRzLzEuMS8iIHhtbG5zOmlua3NjYXBlPSJodHRwOi8vd3d3Lmlua3NjYXBlLm9yZy9uYW1lc3BhY2VzL2lua3NjYXBlIiB4bWxuczpyZGY9Imh0dHA6Ly93d3cudzMub3JnLzE5OTkvMDIvMjItcmRmLXN5bnRheC1ucyMiIHhtbG5zOnNvZGlwb2RpPSJodHRwOi8vc29kaXBvZGkuc291cmNlZm9yZ2UubmV0L0RURC9zb2RpcG9kaS0wLmR0ZCIgeG1sbnM6c3ZnPSJodHRwOi8vd3d3LnczLm9yZy8yMDAwL3N2ZyIgeG1sbnM9Imh0dHA6Ly93d3cudzMub3JnLzIwMDAvc3ZnIiB4bWxuczp4bGluaz0iaHR0cDovL3d3dy53My5vcmcvMTk5OS94bGluayIgdmVyc2lvbj0iMS4xIiBpZD0ic3ZnMTA4MzUiIGlua3NjYXBlOnZlcnNpb249IjAuOTIuMyAoMjQwNTU0NiwgMjAxOC0wMy0xMSkiIHNvZGlwb2RpOmRvY25hbWU9ImlwaG9uZS5zdmciIHg9IjBweCIgeT0iMHB4IiB2aWV3Qm94PSIwIDAgMjguMTYgNTEuNDciIHN0eWxlPSJlbmFibGUtYmFja2dyb3VuZDpuZXcgMCAwIDI4LjE2IDUxLjQ3OyIgeG1sOnNwYWNlPSJwcmVzZXJ2ZSI+JiN4YTs8c29kaXBvZGk6bmFtZWR2aWV3IGJvcmRlcmNvbG9yPSIjNjY2NjY2IiBib3JkZXJvcGFjaXR5PSIxIiBmaXQtbWFyZ2luLWJvdHRvbT0iMCIgZml0LW1hcmdpbi1sZWZ0PSIwIiBmaXQtbWFyZ2luLXJpZ2h0PSIwIiBmaXQtbWFyZ2luLXRvcD0iMCIgZ3JpZHRvbGVyYW5jZT0iMTAiIGd1aWRldG9sZXJhbmNlPSIxMCIgaWQ9Im5hbWVkdmlldzEwODM3IiBpbmtzY2FwZTpjdXJyZW50LWxheWVyPSJzdmcxMDgzNSIgaW5rc2NhcGU6Y3g9IjE4Ljc3MzEzNiIgaW5rc2NhcGU6Y3k9IjM0LjMxNTY3MiIgaW5rc2NhcGU6cGFnZW9wYWNpdHk9IjAiIGlua3NjYXBlOnBhZ2VzaGFkb3c9IjIiIGlua3NjYXBlOndpbmRvdy1oZWlnaHQ9IjEwMTciIGlua3NjYXBlOndpbmRvdy1tYXhpbWl6ZWQ9IjEiIGlua3NjYXBlOndpbmRvdy13aWR0aD0iMTkyMCIgaW5rc2NhcGU6d2luZG93LXg9Ii04IiBpbmtzY2FwZTp3aW5kb3cteT0iLTgiIGlua3NjYXBlOnpvb209IjEyLjYzNDQyMyIgb2JqZWN0dG9sZXJhbmNlPSIxMCIgcGFnZWNvbG9yPSIjZmZmZmZmIiBzaG93Z3JpZD0iZmFsc2UiPiYjeGE7CTwvc29kaXBvZGk6bmFtZWR2aWV3PiYjeGE7PGcgaWQ9ImcxMDgzMyI+JiN4YTsJPHRpdGxlIGlkPSJ0aXRsZTEwODA4Ij5QYWdlLTE8L3RpdGxlPiYjeGE7CTxnIGlkPSJncm91cDM0NzYtMSI+JiN4YTsJCTx0aXRsZSBpZD0idGl0bGUxMDgxMCI+aVBob25lPC90aXRsZT4mI3hhOwkJPGcgaWQ9InNoYXBlMzQ3Ny0yIj4mI3hhOwkJCTx0aXRsZSBpZD0idGl0bGUxMDgxMiI+U2hlZXQuMzQ3NzwvdGl0bGU+JiN4YTsJCQk8cGF0aCBpZD0icGF0aDEwODE0IiBpbmtzY2FwZTpjb25uZWN0b3ItY3VydmF0dXJlPSIwIiBzdHlsZT0iZmlsbDojM0Y1NzY1OyIgZD0iTTI2LjIxLDBDMS44NCwwLDEuODQsMCwxLjg0LDAgICAgIEMwLjkyLDAsMCwwLjgsMCwxLjk5YzAsNDQuMzgsMCw0Ny42OCwwLDQ3LjY4YzAsMC45MiwwLjkyLDEuOCwxLjg0LDEuOGMyNC4zNywwLDI0LjM3LDAsMjQuMzcsMGMwLjkyLDAsMS45NS0wLjg4LDEuOTUtMS44ICAgICBjMC00NC40MiwwLTQ3LjY4LDAtNDcuNjhDMjguMTYsMC44LDI3LjEzLDAsMjYuMjEsMHoiLz4mI3hhOwkJPC9nPiYjeGE7CQk8ZyBpZD0ic2hhcGUzNDc4LTQiIHRyYW5zZm9ybT0idHJhbnNsYXRlKDkuMTgyNTEsLTQ3Ljc5MDQpIj4mI3hhOwkJCTx0aXRsZSBpZD0idGl0bGUxMDgxNyI+U2hlZXQuMzQ3ODwvdGl0bGU+JiN4YTsJCQk8cGF0aCBpZD0icGF0aDEwODE5IiBpbmtzY2FwZTpjb25uZWN0b3ItY3VydmF0dXJlPSIwIiBzdHlsZT0iZmlsbDojRkZGRkZGOyIgZD0iTTkuMTgsNTEuMDhjMCwwLjItMC4zOCwwLjM5LTAuOCwwLjM5ICAgICBjLTcuNjUsMC03LjY1LDAtNy42NSwwQzAuNDIsNTEuNDcsMCw1MS4yOCwwLDUxLjA4YzAtMC4xNSwwLjQyLTAuMjMsMC43My0wLjIzYzcuNjUsMCw3LjY1LDAsNy42NSwwICAgICBDOC44LDUwLjg1LDkuMTgsNTAuOTMsOS4xOCw1MS4wOHoiLz4mI3hhOwkJPC9nPiYjeGE7CQk8ZyBpZD0ic2hhcGUzNDc5LTYiIHRyYW5zZm9ybT0idHJhbnNsYXRlKDExLjYzMTIsLTEuMjI1MzkpIj4mI3hhOwkJCTx0aXRsZSBpZD0idGl0bGUxMDgyMiI+U2hlZXQuMzQ3OTwvdGl0bGU+JiN4YTsJCQk8cGF0aCBpZD0icGF0aDEwODI0IiBpbmtzY2FwZTpjb25uZWN0b3ItY3VydmF0dXJlPSIwIiBzdHlsZT0iZmlsbDojRkZGRkZGOyIgZD0iTTAsNDkuMDJjMC0xLjM0LDEuMTEtMi40NiwyLjQ1LTIuNDYgICAgIGMxLjM4LDAsMi40NSwxLjEyLDIuNDUsMi40NmMwLDEuMzctMS4wNywyLjQ1LTIuNDUsMi40NUMxLjExLDUxLjQ3LDAsNTAuMzksMCw0OS4wMnoiLz4mI3hhOwkJPC9nPiYjeGE7CQk8ZyBpZD0ic2hhcGUzNDgwLTgiIHRyYW5zZm9ybT0idHJhbnNsYXRlKDIuNzQ4NTgsLTcuMzUyMzYpIj4mI3hhOwkJCTx0aXRsZSBpZD0idGl0bGUxMDgyNyI+U2hlZXQuMzQ4MDwvdGl0bGU+JiN4YTsJCQk8cGF0aCBpZD0icGF0aDEwODI5IiBpbmtzY2FwZTpjb25uZWN0b3ItY3VydmF0dXJlPSIwIiBzdHlsZT0iZmlsbDojRkZGRkZGOyIgZD0iTTAsMTIuODdoMjIuNjV2MzguNkgwVjEyLjg3ICAgICBDMCwxMi44NywwLDEyLjg3LDAsMTIuODd6Ii8+JiN4YTsJCTwvZz4mI3hhOwk8L2c+JiN4YTs8L2c+JiN4YTs8L3N2Zz4=;" vertex="1" parent="1">
          <mxGeometry x="499.19" y="514.96" width="39" height="71.04" as="geometry" />
        </mxCell>
        <mxCell id="0fIpZP7jr5zXnAWBWlGi-8" value="" style="edgeStyle=orthogonalEdgeStyle;html=1;startArrow=none;startFill=0;startSize=10;endArrow=none;endFill=0;endSize=10;strokeWidth=3;fontSize=11;fontColor=#FFFFFF;strokeColor=#FFFFFF;dashed=1;rounded=0;" edge="1" parent="1" target="0fIpZP7jr5zXnAWBWlGi-9">
          <mxGeometry relative="1" as="geometry">
            <Array as="points">
              <mxPoint x="581" y="730" />
            </Array>
            <mxPoint x="581" y="698" as="sourcePoint" />
            <mxPoint x="798" y="591" as="targetPoint" />
          </mxGeometry>
        </mxCell>
        <mxCell id="0fIpZP7jr5zXnAWBWlGi-9" value="" style="shape=image;verticalLabelPosition=bottom;labelBackgroundColor=#ffffff;verticalAlign=top;aspect=fixed;imageAspect=0;image=data:image/svg+xml,PHN2ZyB4bWxuczpkYz0iaHR0cDovL3B1cmwub3JnL2RjL2VsZW1lbnRzLzEuMS8iIHhtbG5zOmNjPSJodHRwOi8vY3JlYXRpdmVjb21tb25zLm9yZy9ucyMiIHhtbG5zOnJkZj0iaHR0cDovL3d3dy53My5vcmcvMTk5OS8wMi8yMi1yZGYtc3ludGF4LW5zIyIgeG1sbnM6c3ZnPSJodHRwOi8vd3d3LnczLm9yZy8yMDAwL3N2ZyIgeG1sbnM9Imh0dHA6Ly93d3cudzMub3JnLzIwMDAvc3ZnIiB4bWxuczpzb2RpcG9kaT0iaHR0cDovL3NvZGlwb2RpLnNvdXJjZWZvcmdlLm5ldC9EVEQvc29kaXBvZGktMC5kdGQiIHhtbG5zOmlua3NjYXBlPSJodHRwOi8vd3d3Lmlua3NjYXBlLm9yZy9uYW1lc3BhY2VzL2lua3NjYXBlIiB2ZXJzaW9uPSIxLjEiIGlkPSJzdmcxMDE2NTMiIGlua3NjYXBlOnZlcnNpb249IjAuOTIuMyAoMjQwNTU0NiwgMjAxOC0wMy0xMSkiIHNvZGlwb2RpOmRvY25hbWU9Im15c3FsLnN2ZyIgeD0iMHB4IiB5PSIwcHgiIHZpZXdCb3g9IjAgMCA0Ni4wMyA2MC41NyIgeG1sOnNwYWNlPSJwcmVzZXJ2ZSIgd2lkdGg9IjQ2LjAyOTk5OSIgaGVpZ2h0PSI2MC41NyI+PG1ldGFkYXRhIGlkPSJtZXRhZGF0YTkxNCI+PHJkZjpSREY+PGNjOldvcmsgcmRmOmFib3V0PSIiPjxkYzpmb3JtYXQ+aW1hZ2Uvc3ZnK3htbDwvZGM6Zm9ybWF0PjxkYzp0eXBlIHJkZjpyZXNvdXJjZT0iaHR0cDovL3B1cmwub3JnL2RjL2RjbWl0eXBlL1N0aWxsSW1hZ2UiLz48ZGM6dGl0bGUvPjwvY2M6V29yaz48L3JkZjpSREY+PC9tZXRhZGF0YT48ZGVmcyBpZD0iZGVmczkxMiI+JiN4YTsJJiN4YTsmI3hhOwkmI3hhOyYjeGE7CSYjeGE7JiN4YTsJJiN4YTsmI3hhOwkmI3hhOyYjeGE7CSYjeGE7JiN4YTsJJiN4YTsmI3hhOwkmI3hhOyYjeGE7CQkmI3hhOwkmI3hhOwkJJiN4YTsJJiN4YTsJCSYjeGE7CSYjeGE7CQkmI3hhOwkmI3hhOwkJJiN4YTsJJiN4YTsJCSYjeGE7CSYjeGE7CQkmI3hhOwkmI3hhOwkJJiN4YTsJPC9kZWZzPiYjeGE7PGZpbHRlciBpZD0iZmlsdGVyXzIiPiYjeGE7CTxmZUdhdXNzaWFuQmx1ciBpZD0iZmVHYXVzc2lhbkJsdXIxMDE1NzgiIHN0ZERldmlhdGlvbj0iMiIvPiYjeGE7PC9maWx0ZXI+JiN4YTs8c29kaXBvZGk6bmFtZWR2aWV3IGJvcmRlcmNvbG9yPSIjNjY2NjY2IiBib3JkZXJvcGFjaXR5PSIxIiBmaXQtbWFyZ2luLWJvdHRvbT0iMCIgZml0LW1hcmdpbi1sZWZ0PSIwIiBmaXQtbWFyZ2luLXJpZ2h0PSIwIiBmaXQtbWFyZ2luLXRvcD0iMCIgZ3JpZHRvbGVyYW5jZT0iMTAiIGd1aWRldG9sZXJhbmNlPSIxMCIgaWQ9Im5hbWVkdmlldzEwMTY1NSIgaW5rc2NhcGU6Y3VycmVudC1sYXllcj0ic3ZnMTAxNjUzIiBpbmtzY2FwZTpjeD0iLTU5LjUzMDI0NyIgaW5rc2NhcGU6Y3k9IjMzLjIxNTIxIiBpbmtzY2FwZTpwYWdlb3BhY2l0eT0iMCIgaW5rc2NhcGU6cGFnZXNoYWRvdz0iMiIgaW5rc2NhcGU6d2luZG93LWhlaWdodD0iMTAxNyIgaW5rc2NhcGU6d2luZG93LW1heGltaXplZD0iMSIgaW5rc2NhcGU6d2luZG93LXdpZHRoPSIxOTIwIiBpbmtzY2FwZTp3aW5kb3cteD0iLTgiIGlua3NjYXBlOndpbmRvdy15PSItOCIgaW5rc2NhcGU6em9vbT0iNC44ODM3NzkiIG9iamVjdHRvbGVyYW5jZT0iMTAiIHBhZ2Vjb2xvcj0iI2ZmZmZmZiIgc2hvd2dyaWQ9ImZhbHNlIj4mI3hhOwk8L3NvZGlwb2RpOm5hbWVkdmlldz4mI3hhOyYjeGE7PHBhdGggaWQ9InBhdGgxMDE1OTEiIGlua3NjYXBlOmNvbm5lY3Rvci1jdXJ2YXR1cmU9IjAiIHN0eWxlPSJmaWxsOiMwMDcyYzYiIGQ9Ik0gMCw4LjI4IFYgNTIuMyBjIDAsNC41NyAxMC4zMSw4LjI3IDIzLjAyLDguMjcgViA4LjI4IFoiLz4mI3hhOyYjeGE7PHBhdGggaWQ9InBhdGgxMDE1OTkiIGlua3NjYXBlOmNvbm5lY3Rvci1jdXJ2YXR1cmU9IjAiIHN0eWxlPSJmaWxsOiMwMDcyYzYiIGQ9Im0gMjIuNyw2MC41NyBoIDAuMzEgYyAxMi43MiwwIDIzLjAyLC0zLjcgMjMuMDIsLTguMjcgViA4LjI4IEggMjIuNyBaIi8+JiN4YTsmI3hhOzxwYXRoIGlkPSJwYXRoMTAxNjA3IiBpbmtzY2FwZTpjb25uZWN0b3ItY3VydmF0dXJlPSIwIiBzdHlsZT0iZmlsbDojZmZmZmZmO2ZpbGwtb3BhY2l0eTowLjE1IiBkPSJtIDIyLjcsNjAuNTcgaCAwLjMxIGMgMTIuNzIsMCAyMy4wMiwtMy43IDIzLjAyLC04LjI3IFYgOC4yOCBIIDIyLjcgWiIvPiYjeGE7JiN4YTs8cGF0aCBpZD0icGF0aDEwMTYxNSIgaW5rc2NhcGU6Y29ubmVjdG9yLWN1cnZhdHVyZT0iMCIgc3R5bGU9ImZpbGw6I2ZmZmZmZiIgZD0ibSA0Ni4wMyw4LjI4IGMgMCw0LjU3IC0xMC4zLDguMjcgLTIzLjAxLDguMjcgQyAxMC4zMSwxNi41NSAwLDEyLjg1IDAsOC4yOCAwLDMuNzEgMTAuMzEsMCAyMy4wMiwwIDM1LjczLDAgNDYuMDMsMy43MSA0Ni4wMyw4LjI4IFoiLz4mI3hhOyYjeGE7PHBhdGggaWQ9InBhdGgxMDE2MjMiIGlua3NjYXBlOmNvbm5lY3Rvci1jdXJ2YXR1cmU9IjAiIHN0eWxlPSJmaWxsOiNkZDU5MDAiIGQ9Im0gNDEuMzMsNy44IGMgMCwzLjAyIC04LjIsNS40NiAtMTguMzEsNS40NiAtMTAuMTEsMCAtMTguMzEsLTIuNDQgLTE4LjMxLC01LjQ2IDAsLTMuMDEgOC4yLC01LjQ2IDE4LjMxLC01LjQ2IDEwLjEyLDAgMTguMzEsMi40NSAxOC4zMSw1LjQ2IHoiLz4mI3hhOyYjeGE7PHBhdGggaWQ9InBhdGgxMDE2MzEiIGlua3NjYXBlOmNvbm5lY3Rvci1jdXJ2YXR1cmU9IjAiIHN0eWxlPSJmaWxsOiNmZjhjMDAiIGQ9Im0gMzcuNSwxMS4xMyBjIDIuMzksLTAuOTIgMy44MywtMi4wOCAzLjgzLC0zLjMzIDAsLTMuMDIgLTguMiwtNS40NiAtMTguMzEsLTUuNDYgLTEwLjExLDAgLTE4LjMxLDIuNDQgLTE4LjMxLDUuNDYgMCwxLjI1IDEuNDQsMi40MSAzLjg0LDMuMzMgMy4zNCwtMS4yOSA4LjU3LC0yLjEyIDE0LjQ3LC0yLjEyIDUuOSwwIDExLjEyLDAuODMgMTQuNDgsMi4xMiB6Ii8+JiN4YTsmI3hhOzxwYXRoIGlkPSJwYXRoMTAxNjM5IiBpbmtzY2FwZTpjb25uZWN0b3ItY3VydmF0dXJlPSIwIiBzdHlsZT0iZmlsbDojZmZmZmZmIiBkPSJNIDQuNzgsNDAuNjggSCA3LjY5IFYgMjkuMTkgbCA0LjUxLDEwLjAyIGMgMC41MywxLjIxIDEuMjYsMS42NCAyLjY5LDEuNjQgMS40MiwwIDIuMTIsLTAuNDMgMi42NiwtMS42NCBsIDQuNSwtMTAuMDIgdiAxMS40OSBoIDIuOTEgViAyOS4yMSBjIDAsLTEuMTIgLTAuNDUsLTEuNjYgLTEuMzcsLTEuOTQgLTIuMjEsLTAuNjkgLTMuNjksLTAuMSAtNC4zNywxLjQgTCAxNC44LDM4LjU2IDEwLjUyLDI4LjY3IEMgOS44OCwyNy4xNyA4LjM2LDI2LjU4IDYuMTUsMjcuMjcgNS4yMywyNy41NSA0Ljc4LDI4LjA5IDQuNzgsMjkuMjEgWiIvPiYjeGE7JiN4YTs8cGF0aCBpZD0icGF0aDEwMTY0NyIgaW5rc2NhcGU6Y29ubmVjdG9yLWN1cnZhdHVyZT0iMCIgc3R5bGU9ImZpbGw6I2ZmZmZmZiIgZD0ibSAyNy4zOCwzMS4zMyBoIDIuOTEgdiA2LjMzIGMgLTAuMDMsMC4zNCAwLjExLDEuMTUgMS43LDEuMTggMC44MiwwLjAxIDYuMjgsMCA2LjM0LDAgdiAtNy41NSBoIDIuOTEgYyAwLjAyLDAgMCwxMC4yOSAwLDEwLjMzIDAuMDIsMi41NCAtMy4xNSwzLjA5IC00LjYsMy4xMyBoIC05LjIgdiAtMS45NiBjIDAuMDIsMCA5LjE5LDAuMDEgOS4yMSwwIDEuODgsLTAuMTkgMS42NSwtMS4xMyAxLjY1LC0xLjQ0IHYgLTAuNzYgaCAtNi4xOCBjIC0yLjg4LC0wLjAzIC00LjcyLC0xLjI5IC00Ljc0LC0yLjczIDAsLTAuMTQgMC4wNiwtNi40NyAwLC02LjUzIHoiLz4mI3hhOzwvc3ZnPg==;" vertex="1" parent="1">
          <mxGeometry x="740" y="720" width="46" height="61" as="geometry" />
        </mxCell>
        <mxCell id="0fIpZP7jr5zXnAWBWlGi-10" value="" style="shape=image;verticalLabelPosition=bottom;labelBackgroundColor=#ffffff;verticalAlign=top;aspect=fixed;imageAspect=0;image=data:image/svg+xml,PHN2ZyB4bWxuczpkYz0iaHR0cDovL3B1cmwub3JnL2RjL2VsZW1lbnRzLzEuMS8iIHhtbG5zOmNjPSJodHRwOi8vY3JlYXRpdmVjb21tb25zLm9yZy9ucyMiIHhtbG5zOnJkZj0iaHR0cDovL3d3dy53My5vcmcvMTk5OS8wMi8yMi1yZGYtc3ludGF4LW5zIyIgeG1sbnM6c3ZnPSJodHRwOi8vd3d3LnczLm9yZy8yMDAwL3N2ZyIgeG1sbnM9Imh0dHA6Ly93d3cudzMub3JnLzIwMDAvc3ZnIiB4bWxuczpzb2RpcG9kaT0iaHR0cDovL3NvZGlwb2RpLnNvdXJjZWZvcmdlLm5ldC9EVEQvc29kaXBvZGktMC5kdGQiIHhtbG5zOmlua3NjYXBlPSJodHRwOi8vd3d3Lmlua3NjYXBlLm9yZy9uYW1lc3BhY2VzL2lua3NjYXBlIiB2ZXJzaW9uPSIxLjEiIGlkPSJzdmc3OTMzNSIgaW5rc2NhcGU6dmVyc2lvbj0iMC45Mi4zICgyNDA1NTQ2LCAyMDE4LTAzLTExKSIgc29kaXBvZGk6ZG9jbmFtZT0iZG9ja2VyLnN2ZyIgeD0iMHB4IiB5PSIwcHgiIHZpZXdCb3g9IjAgMCA5OS4yMiA4My4yMzk4NCIgeG1sOnNwYWNlPSJwcmVzZXJ2ZSIgd2lkdGg9Ijk5LjIyMDAwMSIgaGVpZ2h0PSI4My4yMzk4MzgiPjxtZXRhZGF0YSBpZD0ibWV0YWRhdGExMTIxIj48cmRmOlJERj48Y2M6V29yayByZGY6YWJvdXQ9IiI+PGRjOmZvcm1hdD5pbWFnZS9zdmcreG1sPC9kYzpmb3JtYXQ+PGRjOnR5cGUgcmRmOnJlc291cmNlPSJodHRwOi8vcHVybC5vcmcvZGMvZGNtaXR5cGUvU3RpbGxJbWFnZSIvPjxkYzp0aXRsZS8+PC9jYzpXb3JrPjwvcmRmOlJERj48L21ldGFkYXRhPjxkZWZzIGlkPSJkZWZzMTExOSI+JiN4YTsJJiN4YTsmI3hhOwkmI3hhOyYjeGE7CSYjeGE7CSYjeGE7CSYjeGE7JiN4YTsJJiN4YTsJJiN4YTsJJiN4YTsmI3hhOwkmI3hhOwkmI3hhOwkmI3hhOyYjeGE7CSYjeGE7CSYjeGE7CSYjeGE7JiN4YTsJJiN4YTsmI3hhOwkmI3hhOwkmI3hhOwkmI3hhOyYjeGE7CSYjeGE7CSYjeGE7CSYjeGE7JiN4YTsJJiN4YTsJJiN4YTsJJiN4YTsmI3hhOwkmI3hhOwkmI3hhOwkmI3hhOyYjeGE7CSYjeGE7CSYjeGE7CSYjeGE7JiN4YTsJJiN4YTsJJiN4YTsJJiN4YTsmI3hhOwkmI3hhOwkmI3hhOwkmI3hhOyYjeGE7CSYjeGE7CSYjeGE7CSYjeGE7JiN4YTsJJiN4YTsJJiN4YTsJJiN4YTsmI3hhOwkmI3hhOyYjeGE7CSYjeGE7JiN4YTsJJiN4YTsmI3hhOwkmI3hhOyYjeGE7CSYjeGE7JiN4YTsJCSYjeGE7CSYjeGE7CQkmI3hhOwkmI3hhOwkJJiN4YTsJJiN4YTsJCSYjeGE7CSYjeGE7CQkmI3hhOwkmI3hhOwkJJiN4YTsJJiN4YTsJCSYjeGE7CSYjeGE7CQkmI3hhOwkmI3hhOwkJJiN4YTsJJiN4YTsJCSYjeGE7CSYjeGE7CQkmI3hhOwkmI3hhOwkJJiN4YTsJJiN4YTsJCSYjeGE7CSYjeGE7CQkmI3hhOwkmI3hhOwkJJiN4YTsJJiN4YTsJCSYjeGE7CSYjeGE7CQkmI3hhOwkmI3hhOwkJJiN4YTsJJiN4YTsJCSYjeGE7CSYjeGE7CQkmI3hhOwkmI3hhOwkJCSYjeGE7CQkmI3hhOwkJCSYjeGE7CQkmI3hhOwkJCSYjeGE7CQkmI3hhOwkJCSYjeGE7CQk8L2RlZnM+JiN4YTs8ZmlsdGVyIGlkPSJmaWx0ZXJfMiI+JiN4YTsJPGZlR2F1c3NpYW5CbHVyIGlkPSJmZUdhdXNzaWFuQmx1cjc5MTUwIiBzdGREZXZpYXRpb249IjIiLz4mI3hhOzwvZmlsdGVyPiYjeGE7PHNvZGlwb2RpOm5hbWVkdmlldyBib3JkZXJjb2xvcj0iIzY2NjY2NiIgYm9yZGVyb3BhY2l0eT0iMSIgZml0LW1hcmdpbi1ib3R0b209IjAiIGZpdC1tYXJnaW4tbGVmdD0iMCIgZml0LW1hcmdpbi1yaWdodD0iMCIgZml0LW1hcmdpbi10b3A9IjAiIGdyaWR0b2xlcmFuY2U9IjEwIiBndWlkZXRvbGVyYW5jZT0iMTAiIGlkPSJuYW1lZHZpZXc3OTMzNyIgaW5rc2NhcGU6Y3VycmVudC1sYXllcj0ic3ZnNzkzMzUiIGlua3NjYXBlOmN4PSItMjQuMjM0MzIxIiBpbmtzY2FwZTpjeT0iNTUuNzcxNTY5IiBpbmtzY2FwZTpwYWdlb3BhY2l0eT0iMCIgaW5rc2NhcGU6cGFnZXNoYWRvdz0iMiIgaW5rc2NhcGU6d2luZG93LWhlaWdodD0iMTAxNyIgaW5rc2NhcGU6d2luZG93LW1heGltaXplZD0iMSIgaW5rc2NhcGU6d2luZG93LXdpZHRoPSIxOTIwIiBpbmtzY2FwZTp3aW5kb3cteD0iLTgiIGlua3NjYXBlOndpbmRvdy15PSItOCIgaW5rc2NhcGU6em9vbT0iMy4yOTk1NDQ5IiBvYmplY3R0b2xlcmFuY2U9IjEwIiBwYWdlY29sb3I9IiNmZmZmZmYiIHNob3dncmlkPSJmYWxzZSI+JiN4YTsJPC9zb2RpcG9kaTpuYW1lZHZpZXc+JiN4YTsmI3hhOzxwYXRoIGlkPSJwYXRoNzkxNjMiIGlua3NjYXBlOmNvbm5lY3Rvci1jdXJ2YXR1cmU9IjAiIHN0eWxlPSJmaWxsOiMzZjU3NjUiIGQ9Im0gNzMuNDYsNzggYyAyLjIzLC0xLjkxIDQuNDYsLTMuODMgNi42OSwtNS43NSAwLjc2LC0wLjY2IDEuNTksLTEuMzQgMi4zNSwtMi4wMyAtMC42MSwtMC43NiAtMS42MiwtMS4zMSAtMi40OCwtMS42NCAtMS43MywtMC42NiAtMy40NCwtMC40NCAtNS4wMywwLjQ4IC0yLjA5LDEuMiAtMi45NywzLjEyIC0yLjg5LDUuNSAwLjAzLDAuOTQgMC4yOCwxLjg0IDAuNzgsMi42NCAwLjE3LDAuMjggMC4zNywwLjU1IDAuNTgsMC44IHogbSAyLjU4LDEuODEgYyAxLjEsMC4zOCAyLjM0LDAuMzMgMy40NywwLjE0IDAuNTcsLTAuMjUgMi4wNCwtMC44OSAyLjU4LC0wLjggbCAwLjA4LDAuMDIgMC4wOCwwLjA0IGMgMC4zMywwLjE2IDAuNjQsMC4zOCAwLjgxLDAuNzIgMC40LDAuNzkgMC4yMSwxLjU3IC0wLjU3LDIuMDIgbCAtMC4yNSwwLjE1IGMgLTIuODUsMS42NSAtNS44OSwxLjQyIC04LjczLC0wLjEyIC0xLjM2LC0wLjczIC0yLjQsLTEuODIgLTMuMTcsLTMuMTYgbCAtMC4xOCwtMC4zMSBjIC0xLjgzLC0zLjE3IC0xLjU4LC02LjUgMC40OCwtOS41MiAwLjcyLC0xLjA0IDEuNjUsLTEuODUgMi43NCwtMi40OCBsIDAuNDEsLTAuMjMgYyAyLjY5LC0xLjU1IDUuNTcsLTEuNDUgOC4zMywtMC4wOSAxLjQ4LDAuNzMgMi42OCwxLjgzIDMuNTEsMy4yNiBsIDAuMTUsMC4yNiBjIDAuNiwxLjA0IC0wLjE4LDEuOTUgLTAuOTgsMi41NyAtMC45NCwwLjcyIC0xLjg4LDEuNTkgLTIuNzgsMi4zNiAtMS45OSwxLjcyIC0zLjk4LDMuNDUgLTUuOTgsNS4xNyB6IE0gOTcuNDEsNjUuMzkgaCAwLjMgYyAwLjksMCAxLjUxLDAuNjEgMS41MSwxLjUgMCwxLjI1IC0xLjIsMS41NyAtMi4yMiwxLjU3IC0xLjM2LDAgLTIuNjQsMC44MSAtMy41NywxLjczIC0xLjE3LDEuMTUgLTEuNjcsMi42MSAtMS42Nyw0LjIyIHYgNy4yOCBjIDAsMC44MyAtMC41MiwxLjUxIC0xLjM5LDEuNTEgaCAtMC4yNCBjIC0wLjg2LDAgLTEuMzgsLTAuNjggLTEuMzgsLTEuNTEgdiAtNy43IGMgMCwtMi45NSAxLjQ0LC01LjM2IDMuODQsLTcuMDYgMS40MywtMS4wMSAzLjA3LC0xLjU0IDQuODIsLTEuNTQgeiBtIC0zNy40Nyw1LjE2IGMgMS4xNiwtMS4xNyAyLjM0LC0yLjMzIDMuNTIsLTMuNDggMC4zMywtMC4zMiAxLjU4LC0xLjY4IDIuMDgsLTEuNjggaCAwLjUzIGwgMC4wNiwwLjAxIGMgMC42OSwwLjE0IDEuMiwwLjU4IDEuMiwxLjMxIHYgMC4zIGMgMCwwLjUgLTAuNTksMS4wOSAtMC45MSwxLjQzIC0wLjY5LDAuNzQgLTEuNDIsMS40NCAtMi4xMywyLjE2IGwgLTMuNjMsMy42OSBjIDEuNTcsMS41NiAzLjEzLDMuMTMgNC42OCw0LjcxIDAuNDMsMC40NCAwLjg2LDAuODggMS4yOCwxLjMyIDAuMTUsMC4xNiAwLjM3LDAuMzUgMC41LDAuNTcgMC4xMywwLjIxIDAuMjEsMC40NCAwLjIxLDAuNjggdiAwLjMxIGwgLTAuMDEsMC4wNyBjIC0wLjE3LDAuNjkgLTAuNjEsMS4yNCAtMS4zNywxLjI0IGggLTAuMjQgYyAtMC41LDAgLTEuMDYsLTAuNTYgLTEuNCwtMC44OCAtMC43LC0wLjY2IC0xLjM4LC0xLjM2IC0yLjA3LC0yLjAzIGwgLTIuMzEsLTIuMjcgdiAzLjYyIGMgMCwwLjg0IC0wLjUyLDEuNTEgLTEuMzgsMS41MSBoIC0wLjI0IGMgLTAuODYsMCAtMS4zOCwtMC42NyAtMS4zOCwtMS41MSBWIDYxLjIyIGMgMCwtMC44MyAwLjUyLC0xLjUgMS4zOCwtMS41IGggMC4yNCBjIDAuODYsMCAxLjM4LDAuNjcgMS4zOCwxLjUgdiA5LjMzIHogbSAtOS43NSwtMi4wMyBjIC0wLjQ2LC0wLjIxIC0xLjMxLC0wLjI5IC0xLjgsLTAuMyAtMi41MSwtMC4xIC00LjMzLDEuMzIgLTUuNCwzLjUzIC0wLjM2LDAuNzcgLTAuNTMsMS41OCAtMC41MywyLjQyIDAsMi41OCAxLjM1LDQuMzggMy42NSw1LjQ4IDAuODQsMC40IDEuOTIsMC40OCAyLjg0LDAuNDggMC44MSwwIDEuOTUsLTAuNSAyLjY2LC0wLjg0IGwgMC4xMywtMC4wNiBoIDAuNTYgbCAwLjA2LDAuMDIgYyAwLjY4LDAuMTQgMS4yLDAuNTcgMS4yLDEuMzEgdiAwLjMgYyAwLDEuODMgLTMuMzUsMi4yNSAtNC42MywyLjM0IC00LjUsMC4zMSAtNy44NywtMi4xNyAtOS4xNSwtNi40NiAtMC4yMywtMC43NSAtMC4zMywtMS40OSAtMC4zMywtMi4yNyB2IC0wLjYgYyAwLC0zLjI2IDEuNjIsLTUuODQgNC40MiwtNy41IDEuMywtMC43NyAyLjczLC0xLjE2IDQuMjUsLTEuMTYgaCAwLjU5IGMgMS42LDAgMy4wOCwwLjQ1IDQuNCwxLjM2IGwgMC4xMSwwLjA3IDAuMDcsMC4xMiBjIDAuMTQsMC4yMyAwLjI3LDAuNTEgMC4yNywwLjc5IHYgMC4zIGMgMCwwLjc2IC0wLjU4LDEuMTggLTEuMjcsMS4zMSBsIC0wLjA2LDAuMDEgaCAtMC4xOCBjIC0wLjQ1LDAgLTEuNDYsLTAuNDYgLTEuODYsLTAuNjUgeiBtIC0yNy40Miw1LjcxIGMgMCwyLjI5IDEuMTIsMy45NyAzLjA1LDUuMTUgMC45MSwwLjU2IDEuOSwwLjgxIDIuOTYsMC44MSAyLjI2LDAgMy45MywtMS4xNSA1LjA5LC0zLjA1IDAuNTYsLTAuOTEgMC44MSwtMS45MSAwLjgxLC0yLjk3IDAsLTIuMTIgLTEuMDMsLTMuNzUgLTIuNzgsLTQuOTIgLTAuOTYsLTAuNjUgLTIuMDIsLTAuOTcgLTMuMTgsLTAuOTcgLTIuNTIsMCAtNC4zMywxLjI3IC01LjQyLDMuNTMgLTAuMzcsMC43NiAtMC41MywxLjU4IC0wLjUzLDIuNDIgeiBtIDUuNjUsLTguOTYgaCAwLjQyIGMgMy40OSwwIDYuMTQsMS42OSA3LjgxLDQuNzMgMC42OCwxLjIyIDEuMDMsMi41NCAxLjAzLDMuOTQgdiAwLjU5IGMgMCwzLjI2IC0xLjYsNS44NiAtNC40MSw3LjUxIC0xLjMsMC43NiAtMi43NCwxLjE1IC00LjI1LDEuMTUgaCAtMC42IGMgLTMuMjYsMCAtNS44NSwtMS42MSAtNy41LC00LjQxIC0wLjc3LC0xLjMgLTEuMTYsLTIuNzQgLTEuMTYsLTQuMjUgdiAtMC41OSBjIDAsLTMuMjcgMS42MiwtNS44NSA0LjQxLC03LjUxIDEuMzEsLTAuNzcgMi43NCwtMS4xNiA0LjI1LC0xLjE2IHogTSAzLjA4LDc0LjIzIGMgMCwyLjM2IDEuMTQsNC4xMyAzLjIsNS4yNiAwLjg0LDAuNDUgMS43NCwwLjcgMi42OSwwLjcgMi4zMSwwIDQuMDMsLTEuMDkgNS4yMSwtMy4wNSAwLjU1LC0wLjkxIDAuODEsLTEuOTEgMC44MSwtMi45NyAwLC0yLjA0IC0wLjk3LC0zLjYzIC0yLjYyLC00LjgyIC0wLjk5LC0wLjcxIC0yLjEyLC0xLjA3IC0zLjM0LC0xLjA3IC0yLjUyLDAgLTQuMzMsMS4yNyAtNS40MiwzLjUzIC0wLjM3LDAuNzYgLTAuNTMsMS41OCAtMC41MywyLjQyIHogbSAxMS45MSwtNi43MiB2IC02LjM1IGMgMCwtMC44MyAwLjUyLC0xLjUgMS4zOCwtMS41IGggMC4yNCBjIDAuODcsMCAxLjM4LDAuNjcgMS4zOCwxLjUgdiAxMy4zNyBjIDAsMy4yNiAtMS42MSw1Ljg1IC00LjQxLDcuNTEgLTEuMywwLjc2IC0yLjc0LDEuMTYgLTQuMjUsMS4xNiBIIDguNzMgQyA1LjQ3LDgzLjIgMi44OCw4MS41OCAxLjIzLDc4Ljc4IDAuNDYsNzcuNDggMC4wNyw3Ni4wNCAwLjA3LDc0LjUzIHYgLTAuNTkgYyAwLC0zLjI2IDEuNjEsLTUuODYgNC40MSwtNy41MSAxLjMxLC0wLjc3IDIuNzQsLTEuMTYgNC4yNSwtMS4xNiBoIDAuNiBjIDIuMjEsMCA0LjA4LDAuODUgNS42NiwyLjI0IHoiLz4mI3hhOyYjeGE7PHBhdGggaWQ9InBhdGg3OTE3MSIgaW5rc2NhcGU6Y29ubmVjdG9yLWN1cnZhdHVyZT0iMCIgc3R5bGU9ImZpbGw6IzM5NGQ1NCIgZD0ibSA1Ny4yMywxNy43NSBoIDguODcgdiA5LjA3IGggNC40OSBjIDIuMDcsMCA0LjIsLTAuMzcgNi4xNiwtMS4wNCAwLjk2LC0wLjMyIDIuMDUsLTAuNzggMywtMS4zNSAtMS4yNiwtMS42NCAtMS44OSwtMy43IC0yLjA4LC01Ljc0IC0wLjI2LC0yLjc2IDAuMywtNi4zNyAyLjE3LC04LjUzIGwgMC45NCwtMS4wOCAxLjExLDAuODkgYyAyLjgsMi4yNSA1LjE1LDUuMzkgNS41Niw4Ljk3IDMuMzcsLTAuOTkgNy4zMywtMC43NiAxMC4zLDAuOTYgbCAxLjIyLDAuNyAtMC42NCwxLjI1IEMgOTUuODEsMjYuNzYgOTAuNTYsMjguMjcgODUuNDMsMjggNzcuNzUsNDcuMTQgNjEuMDIsNTYuMiA0MC43NSw1Ni4yIDMwLjI3LDU2LjIgMjAuNjYsNTIuMjggMTUuMTgsNDIuOTggTCAxNS4wOSw0Mi44MyAxNC4zLDQxLjIxIEMgMTIuNDUsMzcuMTIgMTEuODMsMzIuNjQgMTIuMjUsMjguMTYgbCAwLjEyLC0xLjM0IGggNy41OSB2IC05LjA3IGggOC44NyBWIDguODcgSCA0Ni41OCBWIDAgaCAxMC42NCB6Ii8+JiN4YTs8cGF0aCBkPSJtIDg1Ljk4MDMsMjEuMTAwMzMxIGMgMC41OSwtNC42MiAtMi44NywtOC4yNSAtNS4wMiwtOS45OCAtMi40NywyLjg2IC0yLjg1LDEwLjM1IDEuMDMsMTMuNTEgLTIuMTcsMS45MiAtNi43MywzLjY2IC0xMS40LDMuNjYgaCAtNTYuODcgYyAtMC40NSw0Ljg4IDAuNDEsOS4zNyAyLjM2LDEzLjIyIGwgMC42NSwxLjE4IGMgMC40MSwwLjY5IDAuODYsMS4zNiAxLjM0LDIuMDEgdiAwIGMgMi4zNCwwLjE1IDQuNDksMC4yIDYuNDYsMC4xNiAwLDAgMCwwIDAuMDEsMCAzLjg3LC0wLjA5IDcuMDMsLTAuNTQgOS40MywtMS4zNyAwLjM2LC0wLjEzIDAuNzUsMC4wNiAwLjg3LDAuNDIgMC4xMiwwLjM1IC0wLjA3LDAuNzQgLTAuNDIsMC44NyAtMC4zMiwwLjExIC0wLjY1LDAuMjEgLTEsMC4zMSB2IDAgYyAtMS44OSwwLjU0IC0zLjkxLDAuOSAtNi41MiwxLjA2IDAuMTYsMCAtMC4xNiwwLjAyIC0wLjE2LDAuMDIgLTAuMDksMC4wMSAtMC4yLDAuMDIgLTAuMjksMC4wMyAtMS4wMywwLjA1IC0yLjE0LDAuMDcgLTMuMjcsMC4wNyAtMS4yNCwwIC0yLjQ2LC0wLjAzIC0zLjgzLC0wLjEgbCAtMC4wMywwLjAzIGMgNC43Myw1LjMyIDEyLjE0LDguNTIgMjEuNDMsOC41MiAxOS42NSwwIDM2LjMyLC04LjcyIDQzLjcsLTI4LjI4IDUuMjQsMC41NCAxMC4yNywtMC43OSAxMi41NiwtNS4yNiAtMy42NCwtMi4xMSAtOC4zMywtMS40NCAtMTEuMDMsLTAuMDggeiIgc3R5bGU9ImZpbGw6IzAwYWFkYSIgaW5rc2NhcGU6Y29ubmVjdG9yLWN1cnZhdHVyZT0iMCIgaWQ9InBhdGg3OTE4MSIvPiYjeGE7PHBhdGggZD0ibSA4NS45Nzk3NiwyMS4xMDI3MjEgYyAwLjU5LC00LjYzIC0yLjg3LC04LjI2IC01LjAxLC05Ljk4IC0yLjQ4LDIuODYgLTIuODYsMTAuMzUgMS4wMiwxMy41MSAtMi4xNywxLjkyIC02LjczLDMuNjYgLTExLjQsMy42NiBoIC01My41IGMgLTAuMjMsNy40NyAyLjU0LDEzLjE0IDcuNDQsMTYuNTcgMCwwIDAsMCAwLjAxLDAgMy44NywtMC4wOSA3LjAzLC0wLjU1IDkuNDMsLTEuMzggMC4zNiwtMC4xMiAwLjc1LDAuMDcgMC44NywwLjQzIDAuMTIsMC4zNSAtMC4wNywwLjc0IC0wLjQyLDAuODYgLTAuMzIsMC4xMiAtMC42NSwwLjIyIC0xLDAuMzIgdiAwIGMgLTEuODksMC41MyAtNC4wOCwwLjk0IC02LjY5LDEuMTEgMCwwIC0wLjA3LC0wLjA3IC0wLjA3LC0wLjA2IDYuNjksMy40MyAxNi4zOSwzLjQxIDI3LjUxLC0wLjg2IDEyLjQ3LC00Ljc5IDI0LjA3LC0xMy45MSAzMi4xNiwtMjQuMzUgLTAuMTIsMC4wNSAtMC4yNCwwLjExIC0wLjM1LDAuMTcgeiIgc3R5bGU9ImZpbGw6IzI0YjhlYiIgaW5rc2NhcGU6Y29ubmVjdG9yLWN1cnZhdHVyZT0iMCIgaWQ9InBhdGg3OTE4OSIvPiYjeGE7PHBhdGggZD0ibSAxMy44MzEyMywzNC4yMjAzMzEgYyAwLjM1LDIuNjEgMS4xMiw1LjA2IDIuMjUsNy4yOCBsIDAuNjUsMS4xOSBjIDAuNDEsMC42OSAwLjg1LDEuMzYgMS4zNCwyLjAxIDIuMzQsMC4xNSA0LjQ5LDAuMiA2LjQ2LDAuMTYgMy44OCwtMC4wOSA3LjA0LC0wLjU0IDkuNDQsLTEuMzggMC4zNiwtMC4xMiAwLjc0LDAuMDcgMC44NywwLjQzIDAuMTIsMC4zNSAtMC4wNywwLjc0IC0wLjQyLDAuODcgLTAuMzIsMC4xMSAtMC42NiwwLjIxIC0xLDAuMzEgdiAwIGMgLTEuODksMC41NCAtNC4wNywwLjkyIC02LjY4LDEuMDggLTAuMDksMC4wMSAtMC4yNSwwLjAxIC0wLjM0LDAuMDIgLTEuMDIsMC4wNSAtMi4xMiwwLjA5IC0zLjI2LDAuMDkgLTEuMjQsMCAtMi41MSwtMC4wMiAtMy44NywtMC4wOSA0Ljc0LDUuMzIgMTIuMTksOC41MyAyMS40OCw4LjUzIDE2LjgyLDAgMzEuNDYsLTYuMzkgMzkuOTYsLTIwLjUgeiIgc3R5bGU9ImZpbGw6IzAwOGJiOCIgaW5rc2NhcGU6Y29ubmVjdG9yLWN1cnZhdHVyZT0iMCIgaWQ9InBhdGg3OTE5NyIvPiYjeGE7PHBhdGggZD0ibSAxNy42MDM4NiwzNC4yMTgzNDEgYyAxLjAxLDQuNTkgMy40Miw4LjE5IDYuOTMsMTAuNjQgMy44OCwtMC4wOCA3LjA0LC0wLjU0IDkuNDQsLTEuMzcgMC4zNSwtMC4xMyAwLjc0LDAuMDYgMC44NywwLjQyIDAuMTIsMC4zNiAtMC4wNywwLjc0IC0wLjQzLDAuODcgLTAuMzIsMC4xMSAtMC42NSwwLjIxIC0wLjk5LDAuMzEgdiAwIGMgLTEuODksMC41NCAtNC4xMiwwLjkyIC02LjczLDEuMDkgNi42OSwzLjQzIDE2LjM2LDMuMzggMjcuNDcsLTAuODkgNi43MywtMi41OSAxMy4yLC02LjQzIDE5LjAxLC0xMS4wNyB6IiBzdHlsZT0iZmlsbDojMDM5YmM2IiBpbmtzY2FwZTpjb25uZWN0b3ItY3VydmF0dXJlPSIwIiBpZD0icGF0aDc5MjA1Ii8+JiN4YTsmI3hhOzxwYXRoIGlkPSJwYXRoNzkyMTQiIGlua3NjYXBlOmNvbm5lY3Rvci1jdXJ2YXR1cmU9IjAiIHN0eWxlPSJmaWxsOiMzOTRkNTQiIGQ9Im0gMjMuMTYsNDYuMjUgYyAxLjEzLDAgMi4yMSwtMC4wMyAzLjI0LC0wLjA5IDAuMDksLTAuMDEgMC4xNywtMC4wMSAwLjI2LC0wLjAyIDAuMDEsMCAwLjAxLDAgMC4wMSwwIDIuNjEsLTAuMTYgNC44NywtMC41MSA2Ljc1LC0xLjA1IHYgMCBjIDAuMzUsLTAuMDkgMC42OCwtMC4yIDEsLTAuMzEgMC4zNSwtMC4xMiAwLjU0LC0wLjUxIDAuNDIsLTAuODcgLTAuMTIsLTAuMzUgLTAuNTEsLTAuNTQgLTAuODcsLTAuNDIgLTIuNCwwLjgzIC01LjU2LDEuMjkgLTkuNDMsMS4zNyB2IDAgYyAtMS45OCwwLjA1IC00LjEzLDAgLTYuNDcsLTAuMTUgdiAwIGMgLTAuMTIsLTAuMDEgLTAuMjQsLTAuMDIgLTAuMzYsLTAuMDMgLTAuMzcsLTAuMDIgLTAuNywwLjI2IC0wLjcyLDAuNjQgLTAuMDMsMC4zNyAwLjI1LDAuNyAwLjYzLDAuNzMgMC40OCwwLjAzIDAuOTUsMC4wNiAxLjQxLDAuMDggMC4wNywwIDAuMTQsMC4wMSAwLjIyLDAuMDEgMS4zNiwwLjA3IDIuNjcsMC4xMSAzLjkxLDAuMTEgeiIvPiYjeGE7PHBhdGggZD0ibSAyNy44ODI2LDE5Ljg2OTIzMSBoIDAuNjEgdiA2LjQgaCAtMC42MSB6IG0gLTEuMTYsMCBoIDAuNjMgdiA2LjQgaCAtMC42MyB6IG0gLTEuMTcsMCBoIDAuNjMgdiA2LjQgaCAtMC42MyB6IG0gLTEuMTYsMCBoIDAuNjMgdiA2LjQgaCAtMC42MyB6IG0gLTEuMTcsMCBoIDAuNjMgdiA2LjQgaCAtMC42MyB6IG0gLTEuMTQsMCBoIDAuNjEgdiA2LjQgaCAtMC42MSB6IG0gLTAuNjQsLTAuNjQgaCA3LjY5IHYgNy42OSBoIC03LjY5IHoiIHN0eWxlPSJmaWxsOiMwMGFjZDMiIGlua3NjYXBlOmNvbm5lY3Rvci1jdXJ2YXR1cmU9IjAiIGlkPSJwYXRoNzkyMjQiLz4mI3hhOzxwYXRoIGQ9Im0gMzYuNzU0NSwxMC45OTYwNjEgaCAwLjYxIHYgNi40MSBoIC0wLjYxIHogbSAtMS4xNiwwIGggMC42MyB2IDYuNDEgaCAtMC42MyB6IG0gLTEuMTcsMCBoIDAuNjMgdiA2LjQxIGggLTAuNjMgeiBtIC0xLjE2LDAgaCAwLjYzIHYgNi40MSBoIC0wLjYzIHogbSAtMS4xNywwIGggMC42MyB2IDYuNDEgaCAtMC42MyB6IG0gLTEuMTQsMCBoIDAuNjEgdiA2LjQxIGggLTAuNjEgeiBtIC0wLjY0LC0wLjY0IGggNy42OSB2IDcuNjkgaCAtNy42OSB6IiBzdHlsZT0iZmlsbDojMDBhY2QzIiBpbmtzY2FwZTpjb25uZWN0b3ItY3VydmF0dXJlPSIwIiBpZD0icGF0aDc5MjMyIi8+JiN4YTs8cGF0aCBkPSJtIDM2Ljc1NDUsMTkuODY5MjMxIGggMC42MSB2IDYuNCBoIC0wLjYxIHogbSAtMS4xNiwwIGggMC42MyB2IDYuNCBoIC0wLjYzIHogbSAtMS4xNywwIGggMC42MyB2IDYuNCBoIC0wLjYzIHogbSAtMS4xNiwwIGggMC42MyB2IDYuNCBoIC0wLjYzIHogbSAtMS4xNywwIGggMC42MyB2IDYuNCBoIC0wLjYzIHogbSAtMS4xNCwwIGggMC42MSB2IDYuNCBoIC0wLjYxIHogbSAtMC42NCwtMC42NCBoIDcuNjkgdiA3LjY5IGggLTcuNjkgeiIgc3R5bGU9ImZpbGw6IzIwYzJlZiIgaW5rc2NhcGU6Y29ubmVjdG9yLWN1cnZhdHVyZT0iMCIgaWQ9InBhdGg3OTI0MCIvPiYjeGE7PHBhdGggZD0ibSA0NS42Mjg5LDE5Ljg2OTIzMSBoIDAuNjEgdiA2LjQgaCAtMC42MSB6IG0gLTEuMTYsMCBoIDAuNjMgdiA2LjQgaCAtMC42MyB6IG0gLTEuMTcsMCBoIDAuNjMgdiA2LjQgaCAtMC42MyB6IG0gLTEuMTYsMCBoIDAuNjMgdiA2LjQgaCAtMC42MyB6IG0gLTEuMTcsMCBoIDAuNjMgdiA2LjQgaCAtMC42MyB6IG0gLTEuMTQsMCBoIDAuNjEgdiA2LjQgaCAtMC42MSB6IG0gLTAuNjQsLTAuNjQgaCA3LjY5IHYgNy42OSBoIC03LjY5IHoiIHN0eWxlPSJmaWxsOiMwMGFjZDMiIGlua3NjYXBlOmNvbm5lY3Rvci1jdXJ2YXR1cmU9IjAiIGlkPSJwYXRoNzkyNDgiLz4mI3hhOzxwYXRoIGQ9Im0gNDUuNjI4OSwxMC45OTYwNjEgaCAwLjYxIHYgNi40MSBoIC0wLjYxIHogbSAtMS4xNiwwIGggMC42MyB2IDYuNDEgaCAtMC42MyB6IG0gLTEuMTcsMCBoIDAuNjMgdiA2LjQxIGggLTAuNjMgeiBtIC0xLjE2LDAgaCAwLjYzIHYgNi40MSBoIC0wLjYzIHogbSAtMS4xNywwIGggMC42MyB2IDYuNDEgaCAtMC42MyB6IG0gLTEuMTQsMCBoIDAuNjEgdiA2LjQxIGggLTAuNjEgeiBtIC0wLjY0LC0wLjY0IGggNy42OSB2IDcuNjkgaCAtNy42OSB6IiBzdHlsZT0iZmlsbDojMjBjMmVmIiBpbmtzY2FwZTpjb25uZWN0b3ItY3VydmF0dXJlPSIwIiBpZD0icGF0aDc5MjU2Ii8+JiN4YTs8cGF0aCBkPSJtIDU0LjUwMDgsMTkuODY5MjMxIGggMC42MSB2IDYuNCBoIC0wLjYxIHogbSAtMS4xNiwwIGggMC42MyB2IDYuNCBoIC0wLjYzIHogbSAtMS4xNywwIGggMC42MyB2IDYuNCBoIC0wLjYzIHogbSAtMS4xNiwwIGggMC42MyB2IDYuNCBoIC0wLjYzIHogbSAtMS4xNywwIGggMC42MyB2IDYuNCBoIC0wLjYzIHogbSAtMS4xNCwwIGggMC42MSB2IDYuNCBoIC0wLjYxIHogbSAtMC42NCwtMC42NCBoIDcuNjkgdiA3LjY5IGggLTcuNjkgeiIgc3R5bGU9ImZpbGw6IzIwYzJlZiIgaW5rc2NhcGU6Y29ubmVjdG9yLWN1cnZhdHVyZT0iMCIgaWQ9InBhdGg3OTI2NCIvPiYjeGE7PHBhdGggZD0ibSA1NC41MDA4LDEwLjk5NjA2MSBoIDAuNjEgdiA2LjQxIGggLTAuNjEgeiBtIC0xLjE2LDAgaCAwLjYzIHYgNi40MSBoIC0wLjYzIHogbSAtMS4xNywwIGggMC42MyB2IDYuNDEgaCAtMC42MyB6IG0gLTEuMTYsMCBoIDAuNjMgdiA2LjQxIGggLTAuNjMgeiBtIC0xLjE3LDAgaCAwLjYzIHYgNi40MSBoIC0wLjYzIHogbSAtMS4xNCwwIGggMC42MSB2IDYuNDEgaCAtMC42MSB6IG0gLTAuNjQsLTAuNjQgaCA3LjY5IHYgNy42OSBoIC03LjY5IHoiIHN0eWxlPSJmaWxsOiMwMGFjZDMiIGlua3NjYXBlOmNvbm5lY3Rvci1jdXJ2YXR1cmU9IjAiIGlkPSJwYXRoNzkyNzIiLz4mI3hhOzxwYXRoIGQ9Im0gNTQuNTAwOCwyLjEyMjkzMSBoIDAuNjEgdiA2LjQxIGggLTAuNjEgeiBtIC0xLjE2LDAgaCAwLjYzIHYgNi40MSBoIC0wLjYzIHogbSAtMS4xNywwIGggMC42MyB2IDYuNDEgaCAtMC42MyB6IG0gLTEuMTYsMCBoIDAuNjMgdiA2LjQxIGggLTAuNjMgeiBtIC0xLjE3LDAgaCAwLjYzIHYgNi40MSBoIC0wLjYzIHogbSAtMS4xNCwwIGggMC42MSB2IDYuNDEgaCAtMC42MSB6IG0gLTAuNjQsLTAuNjQgaCA3LjY5IHYgNy42OSBoIC03LjY5IHoiIHN0eWxlPSJmaWxsOiMyMGMyZWYiIGlua3NjYXBlOmNvbm5lY3Rvci1jdXJ2YXR1cmU9IjAiIGlkPSJwYXRoNzkyODAiLz4mI3hhOzxwYXRoIGQ9Im0gNjMuMzc0LDE5Ljg2OTIzMSBoIDAuNjEgdiA2LjQgaCAtMC42MSB6IG0gLTEuMTYsMCBoIDAuNjMgdiA2LjQgaCAtMC42MyB6IG0gLTEuMTcsMCBoIDAuNjMgdiA2LjQgaCAtMC42MyB6IG0gLTEuMTYsMCBoIDAuNjMgdiA2LjQgaCAtMC42MyB6IG0gLTEuMTcsMCBoIDAuNjMgdiA2LjQgaCAtMC42MyB6IG0gLTEuMTQsMCBoIDAuNjEgdiA2LjQgaCAtMC42MSB6IG0gLTAuNjQsLTAuNjQgaCA3LjY5IHYgNy42OSBoIC03LjY5IHoiIHN0eWxlPSJmaWxsOiMwMGFjZDMiIGlua3NjYXBlOmNvbm5lY3Rvci1jdXJ2YXR1cmU9IjAiIGlkPSJwYXRoNzkyODgiLz4mI3hhOyYjeGE7PHBhdGggaWQ9InBhdGg3OTI5NyIgaW5rc2NhcGU6Y29ubmVjdG9yLWN1cnZhdHVyZT0iMCIgc3R5bGU9ImZpbGw6I2Q0ZWRmMSIgZD0ibSAzNy41MiwzOS4zOCBjIDEuMTcsMCAyLjEyLDAuOTUgMi4xMiwyLjEyIDAsMS4xOCAtMC45NSwyLjEzIC0yLjEyLDIuMTMgLTEuMTcsMCAtMi4xMiwtMC45NSAtMi4xMiwtMi4xMyAwLC0xLjE3IDAuOTUsLTIuMTIgMi4xMiwtMi4xMiB6Ii8+JiN4YTsmI3hhOzxwYXRoIGlkPSJwYXRoNzkzMDUiIGlua3NjYXBlOmNvbm5lY3Rvci1jdXJ2YXR1cmU9IjAiIHN0eWxlPSJmaWxsOiMzOTRkNTQiIGQ9Im0gMzcuNTIsMzkuOTkgYyAwLjE5LDAgMC4zOCwwLjA0IDAuNTUsMC4xIC0wLjE5LDAuMTEgLTAuMzEsMC4zMSAtMC4zMSwwLjU0IDAsMC4zNCAwLjI4LDAuNjIgMC42MiwwLjYyIDAuMjMsMCAwLjQ0LC0wLjEzIDAuNTQsLTAuMzMgMC4wOCwwLjE4IDAuMTIsMC4zOCAwLjEyLDAuNTkgMCwwLjg0IC0wLjY4LDEuNTIgLTEuNTIsMS41MiAtMC44NCwwIC0xLjUyLC0wLjY4IC0xLjUyLC0xLjUyIDAsLTAuODQgMC42OCwtMS41MiAxLjUyLC0xLjUyIHoiLz4mI3hhOyYjeGE7PHBhdGggaWQ9InBhdGg3OTMxMyIgaW5rc2NhcGU6Y29ubmVjdG9yLWN1cnZhdHVyZT0iMCIgc3R5bGU9ImZpbGw6IzM5NGQ1NCIgZD0ibSAwLDM0Ljk5IGggNDYuNDcgNS43NSA0Ni40NyBjIC0yLjE1LC0wLjU1IC02LjgsLTEuMjggLTYuMDMsLTQuMSAtMy45MSw0LjUyIC0xMy4zMywzLjE3IC0xNS43MSwwLjk0IC0yLjY1LDMuODUgLTE4LjA3LDIuMzkgLTE5LjE0LC0wLjYxIC0zLjMyLDMuOSAtMTMuNjEsMy45IC0xNi45MywwIEMgMzkuOCwzNC4yMSAyNC4zOSwzNS42NyAyMS43NCwzMS44MyAxOS4zNiwzNC4wNiA5Ljk0LDM1LjQxIDYuMDMsMzAuODkgNi44LDMzLjcxIDIuMTUsMzQuNDQgMCwzNC45OSBaIi8+JiN4YTsmI3hhOzxwYXRoIGlkPSJwYXRoNzkzMjEiIGlua3NjYXBlOmNvbm5lY3Rvci1jdXJ2YXR1cmU9IjAiIHN0eWxlPSJmaWxsOiNiZmRiZTAiIGQ9Im0gNDMuMTcsNTQuNjcgYyAtNS4yNiwtMi40OSAtOC4xNCwtNS44OCAtOS43NSwtOS41OCAtMS45NSwwLjU1IC00LjI5LDAuOTEgLTcuMDIsMS4wNiAtMS4wMywwLjA2IC0yLjExLDAuMDkgLTMuMjQsMC4wOSAtMS4zMSwwIC0yLjY5LC0wLjA0IC00LjEzLC0wLjEyIDQuODIsNC44MiAxMC43NSw4LjUzIDIxLjcyLDguNTkgMC44MSwwLjAxIDEuNjIsLTAuMDEgMi40MiwtMC4wNCB6Ii8+JiN4YTsmI3hhOzxwYXRoIGlkPSJwYXRoNzkzMjkiIGlua3NjYXBlOmNvbm5lY3Rvci1jdXJ2YXR1cmU9IjAiIHN0eWxlPSJmaWxsOiNkNGVkZjEiIGQ9Im0gMzUuMzcsNDguNTEgYyAtMC43MiwtMC45OSAtMS40MywtMi4yMyAtMS45NCwtMy40MiAtMS45NiwwLjU2IC00LjMsMC45MiAtNy4wMywxLjA3IDEuODcsMS4wMiA0LjU1LDEuOTYgOC45NywyLjM1IHoiLz4mI3hhOzwvc3ZnPg==;" vertex="1" parent="1">
          <mxGeometry x="1066" y="294" width="99" height="83" as="geometry" />
        </mxCell>
        <mxCell id="0fIpZP7jr5zXnAWBWlGi-12" value="" style="shape=image;verticalLabelPosition=bottom;labelBackgroundColor=#ffffff;verticalAlign=top;aspect=fixed;imageAspect=0;image=data:image/svg+xml,PHN2ZyB4bWxuczpjYz0iaHR0cDovL2NyZWF0aXZlY29tbW9ucy5vcmcvbnMjIiB4bWxuczpkYz0iaHR0cDovL3B1cmwub3JnL2RjL2VsZW1lbnRzLzEuMS8iIHhtbG5zOmlua3NjYXBlPSJodHRwOi8vd3d3Lmlua3NjYXBlLm9yZy9uYW1lc3BhY2VzL2lua3NjYXBlIiB4bWxuczpyZGY9Imh0dHA6Ly93d3cudzMub3JnLzE5OTkvMDIvMjItcmRmLXN5bnRheC1ucyMiIHhtbG5zOnNvZGlwb2RpPSJodHRwOi8vc29kaXBvZGkuc291cmNlZm9yZ2UubmV0L0RURC9zb2RpcG9kaS0wLmR0ZCIgeG1sbnM6c3ZnPSJodHRwOi8vd3d3LnczLm9yZy8yMDAwL3N2ZyIgeG1sbnM9Imh0dHA6Ly93d3cudzMub3JnLzIwMDAvc3ZnIiB4bWxuczp4bGluaz0iaHR0cDovL3d3dy53My5vcmcvMTk5OS94bGluayIgdmVyc2lvbj0iMS4xIiBpZD0ic3ZnNjEyNDMiIGlua3NjYXBlOnZlcnNpb249IjAuOTIuMyAoMjQwNTU0NiwgMjAxOC0wMy0xMSkiIHNvZGlwb2RpOmRvY25hbWU9ImF6dXJlX3BvcnRhbF92aXJ0dWFsX21hY2hpbmVzX2NsYXNzaWMuc3ZnIiB4PSIwcHgiIHk9IjBweCIgdmlld0JveD0iMCAwIDQyLjIyIDM5LjMiIHN0eWxlPSJlbmFibGUtYmFja2dyb3VuZDpuZXcgMCAwIDQyLjIyIDM5LjM7IiB4bWw6c3BhY2U9InByZXNlcnZlIj4mI3hhOzxzb2RpcG9kaTpuYW1lZHZpZXcgYm9yZGVyY29sb3I9IiM2NjY2NjYiIGJvcmRlcm9wYWNpdHk9IjEiIGZpdC1tYXJnaW4tYm90dG9tPSIwIiBmaXQtbWFyZ2luLWxlZnQ9IjAiIGZpdC1tYXJnaW4tcmlnaHQ9IjAiIGZpdC1tYXJnaW4tdG9wPSIwIiBncmlkdG9sZXJhbmNlPSIxMCIgZ3VpZGV0b2xlcmFuY2U9IjEwIiBpZD0ibmFtZWR2aWV3NjEyNDUiIGlua3NjYXBlOmN1cnJlbnQtbGF5ZXI9InN2ZzYxMjQzIiBpbmtzY2FwZTpjeD0iMjYuNDM1ODMxIiBpbmtzY2FwZTpjeT0iMjEuNTU5MjQ1IiBpbmtzY2FwZTpwYWdlb3BhY2l0eT0iMCIgaW5rc2NhcGU6cGFnZXNoYWRvdz0iMiIgaW5rc2NhcGU6d2luZG93LWhlaWdodD0iMTAxNyIgaW5rc2NhcGU6d2luZG93LW1heGltaXplZD0iMSIgaW5rc2NhcGU6d2luZG93LXdpZHRoPSIxOTIwIiBpbmtzY2FwZTp3aW5kb3cteD0iLTgiIGlua3NjYXBlOndpbmRvdy15PSItOCIgaW5rc2NhcGU6em9vbT0iMTEuNzAwODM1IiBvYmplY3R0b2xlcmFuY2U9IjEwIiBwYWdlY29sb3I9IiNmZmZmZmYiIHNob3dncmlkPSJmYWxzZSI+JiN4YTsJPC9zb2RpcG9kaTpuYW1lZHZpZXc+JiN4YTs8ZyBpZD0iZzYxMjQxIiB0cmFuc2Zvcm09InRyYW5zbGF0ZSgwLC0wLjAwMTc4KSI+JiN4YTsJPHRpdGxlIGlkPSJ0aXRsZTYxMjA2Ij5QYWdlLTE8L3RpdGxlPiYjeGE7CTxnIGlkPSJncm91cDQzMzQtMSI+JiN4YTsJCTx0aXRsZSBpZD0idGl0bGU2MTIwOCI+QXp1cmUgUG9ydGFsIC0gVmlydHVhbCBNYWNoaW5lcyAoQ2xhc3NpYyk8L3RpdGxlPiYjeGE7CQk8ZyBpZD0ic2hhcGU0MzM1LTIiIHRyYW5zZm9ybT0idHJhbnNsYXRlKDIuOTU1MjEsLTEwLjMwOTQpIj4mI3hhOwkJCTx0aXRsZSBpZD0idGl0bGU2MTIxMCI+U2hlZXQuNDMzNTwvdGl0bGU+JiN4YTsJCQk8cGF0aCBpZD0icGF0aDYxMjEyIiBpbmtzY2FwZTpjb25uZWN0b3ItY3VydmF0dXJlPSIwIiBzdHlsZT0iZmlsbDojRkZGRkZGOyIgZD0iTTM3LjMzLDEyLjk3VjM5LjNIMFYxMi45N2wzNy4zOS0wLjA4ICAgICBMMzcuMzMsMTIuOTd6Ii8+JiN4YTsJCTwvZz4mI3hhOwkJPGcgaWQ9InNoYXBlNDMzNi00IiB0cmFuc2Zvcm09InRyYW5zbGF0ZSg3LjE3NjkzKSI+JiN4YTsJCQk8dGl0bGUgaWQ9InRpdGxlNjEyMTUiPlNoZWV0LjQzMzY8L3RpdGxlPiYjeGE7CQkJPHBhdGggaWQ9InBhdGg2MTIxNyIgaW5rc2NhcGU6Y29ubmVjdG9yLWN1cnZhdHVyZT0iMCIgc3R5bGU9ImZpbGw6IzU5QjREOTsiIGQ9Ik0yMC4yNiwzMS4yN2MtMS4wNSwwLTEuMDUsMC0xLjA1LDAgICAgIGMtOS45NywwLTkuOTcsMC05Ljk3LDBjLTAuNTYsMC0wLjU2LDAtMC41NiwwYzEuMzcsNC44My0wLjUsNS41NC04LjY4LDUuNTRjMCwyLjQ5LDAsMi40OSwwLDIuNDljMTAuNDgsMCwxMC40OCwwLDEwLjQ4LDAgICAgIGM3LjU5LDAsNy41OSwwLDcuNTksMGM5Ljc5LDAsOS43OSwwLDkuNzksMGMwLTIuNDksMC0yLjQ5LDAtMi40OUMxOS43MSwzNi44MSwxOC44OSwzNi4xLDIwLjI2LDMxLjI3eiIvPiYjeGE7CQk8L2c+JiN4YTsJCTxnIGlkPSJzaGFwZTQzMzctNiIgdHJhbnNmb3JtPSJ0cmFuc2xhdGUoMCwtOC4wMjgyMikiPiYjeGE7CQkJPHRpdGxlIGlkPSJ0aXRsZTYxMjIwIj5TaGVldC40MzM3PC90aXRsZT4mI3hhOwkJCTxwYXRoIGlkPSJwYXRoNjEyMjIiIGlua3NjYXBlOmNvbm5lY3Rvci1jdXJ2YXR1cmU9IjAiIHN0eWxlPSJmaWxsOiM1OUI0RDk7IiBkPSJNMzkuNjMsOC4wM2MtMzcuMjYsMC0zNy4yNiwwLTM3LjI2LDAgICAgIEMxLjA2LDguMDMsMCw5LjE5LDAsMTAuNTFjMCwyNi40MSwwLDI2LjQxLDAsMjYuNDFjMCwxLjMyLDEuMDYsMi4zOCwyLjM3LDIuMzhjMzcuMjYsMCwzNy4yNiwwLDM3LjI2LDAgICAgIGMxLjI5LDAsMi41OS0xLjA2LDIuNTktMi4zOGMwLTI2LjQxLDAtMjYuNDEsMC0yNi40MUM0Mi4yMiw5LjE5LDQwLjkyLDguMDMsMzkuNjMsOC4wM3ogTTM5LDExLjMzYzAsMjQuNjksMCwyNC42OSwwLDI0LjY5ICAgICBjLTM1Ljc1LDAtMzUuNzUsMC0zNS43NSwwYzAtMjQuNjksMC0yNC42OSwwLTI0LjY5YzM1LjgzLTAuMDgsMzUuODMtMC4wOCwzNS44My0wLjA4TDM5LDExLjMzeiIvPiYjeGE7CQk8L2c+JiN4YTsJCTxnIGlkPSJzaGFwZTQzMzgtOCIgdHJhbnNmb3JtPSJ0cmFuc2xhdGUoMTMuNTA5NSwtMjQuMDg0NykiPiYjeGE7CQkJPHRpdGxlIGlkPSJ0aXRsZTYxMjI1Ij5TaGVldC40MzM4PC90aXRsZT4mI3hhOwkJCTxwYXRoIGlkPSJwYXRoNjEyMjciIGlua3NjYXBlOmNvbm5lY3Rvci1jdXJ2YXR1cmU9IjAiIHN0eWxlPSJmaWxsOiMwMDcyQzY7IiBkPSJNNy42LDMwLjQyYy0wLjA4LDAtMC4wOCwwLTAuMTYsMCAgICAgYy03LjMzLDQuMjUtNy4zMyw0LjI1LTcuMzMsNC4yNUMwLDM0LjY3LDAsMzQuNzUsMCwzNC44M3MwLDAuMTYsMC4xMSwwLjI0YzcuNDEsNC4yMyw3LjQxLDQuMjMsNy40MSw0LjIzSDcuNiAgICAgYzAuMSwwLDAuMSwwLDAuMTgsMGM3LjM0LTQuMjMsNy4zNC00LjIzLDcuMzQtNC4yM2MwLjA4LDAsMC4wOC0wLjA4LDAuMDgtMC4xNmMwLTAuMDgsMC0wLjE2LTAuMDgtMC4yNCAgICAgQzcuNywzMC40Miw3LjcsMzAuNDIsNy43LDMwLjQySDcuNnoiLz4mI3hhOwkJPC9nPiYjeGE7CQk8ZyBpZD0ic2hhcGU0MzM5LTEwIiB0cmFuc2Zvcm09InRyYW5zbGF0ZSgxMi4yNDMsLTEzLjUyMTIpIj4mI3hhOwkJCTx0aXRsZSBpZD0idGl0bGU2MTIzMCI+U2hlZXQuNDMzOTwvdGl0bGU+JiN4YTsJCQk8cGF0aCBpZD0icGF0aDYxMjMyIiBpbmtzY2FwZTpjb25uZWN0b3ItY3VydmF0dXJlPSIwIiBzdHlsZT0iZmlsbDojMDA3MkM2OyIgZD0iTTAuMjYsMjUuNzdjLTAuMDgsMC0wLjA4LDAtMC4xNSwwICAgICBDMCwyNS43NywwLDI1Ljg4LDAsMjUuOTZjMCw4Ljc0LDAsOC43NCwwLDguNzRjMCwwLjA4LDAsMC4xNiwwLjExLDAuMjRjNy41OSw0LjI4LDcuNTksNC4yOCw3LjU5LDQuMjggICAgIGMwLDAuMDgsMC4wOCwwLjA4LDAuMDgsMC4wOGMwLjA4LDAsMC4wOCwwLDAuMTYtMC4wOGMwLDAsMC4wOC0wLjA4LDAuMDgtMC4xNmMwLTguNzQsMC04Ljc0LDAtOC43NGMwLTAuMDgtMC4wOC0wLjE2LTAuMDgtMC4xNiAgICAgYy03LjYtNC4zOS03LjYtNC4zOS03LjYtNC4zOVMwLjI2LDI1Ljc3LDAuMjYsMjUuNzd6Ii8+JiN4YTsJCTwvZz4mI3hhOwkJPGcgaWQ9InNoYXBlNDM0MC0xMiIgdHJhbnNmb3JtPSJ0cmFuc2xhdGUoMjEuOTUzLC0xMy41MjEyKSI+JiN4YTsJCQk8dGl0bGUgaWQ9InRpdGxlNjEyMzUiPlNoZWV0LjQzNDA8L3RpdGxlPiYjeGE7CQkJPHBhdGggaWQ9InBhdGg2MTIzNyIgaW5rc2NhcGU6Y29ubmVjdG9yLWN1cnZhdHVyZT0iMCIgc3R5bGU9ImZpbGw6IzAwNzJDNjsiIGQ9Ik03LjM5LDI1Ljc3YzAsMC0wLjA4LDAtMC4wOCwwLjExICAgICBjLTcuMTUsNC4yOC03LjE1LDQuMjgtNy4xNSw0LjI4QzAuMDgsMzAuMjQsMCwzMC4zMiwwLDMwLjRjMCw4LjY2LDAsOC42NiwwLDguNjZjMCwwLjA4LDAuMDgsMC4xNiwwLjE2LDAuMTYgICAgIGMwLDAuMDgsMCwwLjA4LDAuMDgsMC4wOGMwLDAsMC4wOCwwLDAuMDgtMC4wOGM3LjItNC4yOCw3LjItNC4yOCw3LjItNC4yOEM3LjYsMzQuODYsNy42LDM0Ljc4LDcuNiwzNC43YzAtOC42NiwwLTguNjYsMC04LjY2ICAgICBjMC0wLjA4LDAtMC4xNi0wLjA4LTAuMTZDNy40NywyNS43Nyw3LjQ3LDI1Ljc3LDcuMzksMjUuNzd6Ii8+JiN4YTsJCTwvZz4mI3hhOwk8L2c+JiN4YTs8L2c+JiN4YTs8L3N2Zz4=;" vertex="1" parent="1">
          <mxGeometry x="486.38" y="410" width="73.62" height="68.36" as="geometry" />
        </mxCell>
        <mxCell id="0fIpZP7jr5zXnAWBWlGi-13" value="" style="edgeStyle=orthogonalEdgeStyle;rounded=0;orthogonalLoop=1;jettySize=auto;html=1;" edge="1" parent="1" target="0fIpZP7jr5zXnAWBWlGi-12">
          <mxGeometry relative="1" as="geometry">
            <mxPoint x="563" y="436" as="sourcePoint" />
          </mxGeometry>
        </mxCell>
        <mxCell id="0fIpZP7jr5zXnAWBWlGi-16" value="" style="image;sketch=0;aspect=fixed;html=1;points=[];align=center;fontSize=12;image=img/lib/mscae/Cache_Redis_Product.svg;" vertex="1" parent="1">
          <mxGeometry x="1026" y="709" width="50" height="42" as="geometry" />
        </mxCell>
        <mxCell id="0fIpZP7jr5zXnAWBWlGi-17" value="" style="edgeStyle=orthogonalEdgeStyle;rounded=0;orthogonalLoop=1;jettySize=auto;html=1;" edge="1" parent="1" source="23046e2b9bb16c14-27" target="0fIpZP7jr5zXnAWBWlGi-16">
          <mxGeometry relative="1" as="geometry" />
        </mxCell>
      </root>
    </mxGraphModel>
  </diagram>
</mxfile>
